%TF.GenerationSoftware,KiCad,Pcbnew,9.0.7*%
%TF.CreationDate,2026-04-08T17:29:30+02:00*%
%TF.ProjectId,HotClock,486f7443-6c6f-4636-9b2e-6b696361645f,rev?*%
%TF.SameCoordinates,Original*%
%TF.FileFunction,Copper,L1,Top*%
%TF.FilePolarity,Positive*%
%FSLAX46Y46*%
G04 Gerber Fmt 4.6, Leading zero omitted, Abs format (unit mm)*
G04 Created by KiCad (PCBNEW 9.0.7) date 2026-04-08 17:29:30*
%MOMM*%
%LPD*%
G01*
G04 APERTURE LIST*
G04 Aperture macros list*
%AMRoundRect*
0 Rectangle with rounded corners*
0 $1 Rounding radius*
0 $2 $3 $4 $5 $6 $7 $8 $9 X,Y pos of 4 corners*
0 Add a 4 corners polygon primitive as box body*
4,1,4,$2,$3,$4,$5,$6,$7,$8,$9,$2,$3,0*
0 Add four circle primitives for the rounded corners*
1,1,$1+$1,$2,$3*
1,1,$1+$1,$4,$5*
1,1,$1+$1,$6,$7*
1,1,$1+$1,$8,$9*
0 Add four rect primitives between the rounded corners*
20,1,$1+$1,$2,$3,$4,$5,0*
20,1,$1+$1,$4,$5,$6,$7,0*
20,1,$1+$1,$6,$7,$8,$9,0*
20,1,$1+$1,$8,$9,$2,$3,0*%
G04 Aperture macros list end*
%TA.AperFunction,SMDPad,CuDef*%
%ADD10RoundRect,0.250000X-0.450000X0.350000X-0.450000X-0.350000X0.450000X-0.350000X0.450000X0.350000X0*%
%TD*%
%TA.AperFunction,ComponentPad*%
%ADD11R,1.700000X1.700000*%
%TD*%
%TA.AperFunction,ComponentPad*%
%ADD12C,1.700000*%
%TD*%
%TA.AperFunction,ComponentPad*%
%ADD13C,5.600000*%
%TD*%
%TA.AperFunction,SMDPad,CuDef*%
%ADD14RoundRect,0.150000X-0.825000X-0.150000X0.825000X-0.150000X0.825000X0.150000X-0.825000X0.150000X0*%
%TD*%
%TA.AperFunction,ComponentPad*%
%ADD15R,1.358000X1.358000*%
%TD*%
%TA.AperFunction,ComponentPad*%
%ADD16C,1.358000*%
%TD*%
%TA.AperFunction,ViaPad*%
%ADD17C,0.600000*%
%TD*%
%TA.AperFunction,Conductor*%
%ADD18C,0.200000*%
%TD*%
%TA.AperFunction,Conductor*%
%ADD19C,0.800000*%
%TD*%
G04 APERTURE END LIST*
D10*
%TO.P,10k,1*%
%TO.N,/P10*%
X87750000Y-44500000D03*
%TO.P,10k,2*%
%TO.N,5V*%
X87750000Y-46500000D03*
%TD*%
D11*
%TO.P,C1,1*%
%TO.N,/GND*%
X87500000Y-51435000D03*
D12*
%TO.P,C1,2*%
%TO.N,5V*%
X87500000Y-53975000D03*
%TD*%
D13*
%TO.P,H1,1,1*%
%TO.N,/GND*%
X70000000Y-59250000D03*
%TD*%
D14*
%TO.P,U3,1,I1*%
%TO.N,/P5*%
X86250000Y-64920000D03*
%TO.P,U3,2,I2*%
%TO.N,/P6*%
X86250000Y-66190000D03*
%TO.P,U3,3,I3*%
%TO.N,/P7*%
X86250000Y-67460000D03*
%TO.P,U3,4,I4*%
%TO.N,/P8*%
X86250000Y-68730000D03*
%TO.P,U3,5,I5*%
%TO.N,unconnected-(U3-I5-Pad5)*%
X86250000Y-70000000D03*
%TO.P,U3,6,I6*%
%TO.N,unconnected-(U3-I6-Pad6)*%
X86250000Y-71270000D03*
%TO.P,U3,7,I7*%
%TO.N,unconnected-(U3-I7-Pad7)*%
X86250000Y-72540000D03*
%TO.P,U3,8,GND*%
%TO.N,/GND*%
X86250000Y-73810000D03*
%TO.P,U3,9,COM*%
%TO.N,5V*%
X91200000Y-73810000D03*
%TO.P,U3,10,O7*%
%TO.N,unconnected-(U3-O7-Pad10)*%
X91200000Y-72540000D03*
%TO.P,U3,11,O6*%
%TO.N,unconnected-(U3-O6-Pad11)*%
X91200000Y-71270000D03*
%TO.P,U3,12,O5*%
%TO.N,unconnected-(U3-O5-Pad12)*%
X91200000Y-70000000D03*
%TO.P,U3,13,O4*%
%TO.N,Net-(J2-Pin_2)*%
X91200000Y-68730000D03*
%TO.P,U3,14,O3*%
%TO.N,Net-(J2-Pin_3)*%
X91200000Y-67460000D03*
%TO.P,U3,15,O2*%
%TO.N,Net-(J2-Pin_4)*%
X91200000Y-66190000D03*
%TO.P,U3,16,O1*%
%TO.N,Net-(J2-Pin_5)*%
X91200000Y-64920000D03*
%TD*%
D13*
%TO.P,H2,1,1*%
%TO.N,/GND*%
X96000000Y-58250000D03*
%TD*%
D14*
%TO.P,U2,1,I1*%
%TO.N,/P1*%
X68525000Y-64825000D03*
%TO.P,U2,2,I2*%
%TO.N,/P2*%
X68525000Y-66095000D03*
%TO.P,U2,3,I3*%
%TO.N,/P3*%
X68525000Y-67365000D03*
%TO.P,U2,4,I4*%
%TO.N,/P4*%
X68525000Y-68635000D03*
%TO.P,U2,5,I5*%
%TO.N,unconnected-(U2-I5-Pad5)*%
X68525000Y-69905000D03*
%TO.P,U2,6,I6*%
%TO.N,unconnected-(U2-I6-Pad6)*%
X68525000Y-71175000D03*
%TO.P,U2,7,I7*%
%TO.N,unconnected-(U2-I7-Pad7)*%
X68525000Y-72445000D03*
%TO.P,U2,8,GND*%
%TO.N,/GND*%
X68525000Y-73715000D03*
%TO.P,U2,9,COM*%
%TO.N,5V*%
X73475000Y-73715000D03*
%TO.P,U2,10,O7*%
%TO.N,unconnected-(U2-O7-Pad10)*%
X73475000Y-72445000D03*
%TO.P,U2,11,O6*%
%TO.N,unconnected-(U2-O6-Pad11)*%
X73475000Y-71175000D03*
%TO.P,U2,12,O5*%
%TO.N,unconnected-(U2-O5-Pad12)*%
X73475000Y-69905000D03*
%TO.P,U2,13,O4*%
%TO.N,Net-(J1-Pin_2)*%
X73475000Y-68635000D03*
%TO.P,U2,14,O3*%
%TO.N,Net-(J1-Pin_3)*%
X73475000Y-67365000D03*
%TO.P,U2,15,O2*%
%TO.N,Net-(J1-Pin_4)*%
X73475000Y-66095000D03*
%TO.P,U2,16,O1*%
%TO.N,Net-(J1-Pin_5)*%
X73475000Y-64825000D03*
%TD*%
D10*
%TO.P,10k,1*%
%TO.N,/P9*%
X92340000Y-44460000D03*
%TO.P,10k,2*%
%TO.N,5V*%
X92340000Y-46460000D03*
%TD*%
D11*
%TO.P,J2,1,Pin_1*%
%TO.N,5V*%
X96000000Y-74560000D03*
D12*
%TO.P,J2,2,Pin_2*%
%TO.N,Net-(J2-Pin_2)*%
X96000000Y-72020000D03*
%TO.P,J2,3,Pin_3*%
%TO.N,Net-(J2-Pin_3)*%
X96000000Y-69480000D03*
%TO.P,J2,4,Pin_4*%
%TO.N,Net-(J2-Pin_4)*%
X96000000Y-66940000D03*
%TO.P,J2,5,Pin_5*%
%TO.N,Net-(J2-Pin_5)*%
X96000000Y-64400000D03*
%TD*%
D11*
%TO.P,P,1,Pin_1*%
%TO.N,/GND*%
X92250000Y-51435000D03*
D12*
%TO.P,P,2,Pin_2*%
%TO.N,5V*%
X92250000Y-53975000D03*
%TD*%
D11*
%TO.P,J1,1,Pin_1*%
%TO.N,5V*%
X78250000Y-74560000D03*
D12*
%TO.P,J1,2,Pin_2*%
%TO.N,Net-(J1-Pin_2)*%
X78250000Y-72020000D03*
%TO.P,J1,3,Pin_3*%
%TO.N,Net-(J1-Pin_3)*%
X78250000Y-69480000D03*
%TO.P,J1,4,Pin_4*%
%TO.N,Net-(J1-Pin_4)*%
X78250000Y-66940000D03*
%TO.P,J1,5,Pin_5*%
%TO.N,Net-(J1-Pin_5)*%
X78250000Y-64400000D03*
%TD*%
D15*
%TO.P,U1,1,D0*%
%TO.N,/P1*%
X67630000Y-36693500D03*
D16*
%TO.P,U1,2,D1*%
%TO.N,/P2*%
X67630000Y-39233500D03*
%TO.P,U1,3,D2*%
%TO.N,/P3*%
X67630000Y-41773500D03*
%TO.P,U1,4,D3*%
%TO.N,/P4*%
X67630000Y-44313500D03*
%TO.P,U1,5,D4*%
%TO.N,/P5*%
X67630000Y-46853500D03*
%TO.P,U1,6,D5*%
%TO.N,/P6*%
X67630000Y-49393500D03*
%TO.P,U1,7,TX_D6*%
%TO.N,/P7*%
X67630000Y-51933500D03*
%TO.P,U1,8,RX_D7*%
%TO.N,/P8*%
X82870000Y-51933500D03*
%TO.P,U1,9,D8*%
%TO.N,/P9*%
X82870000Y-49393500D03*
%TO.P,U1,10,D9*%
%TO.N,/P10*%
X82870000Y-46853500D03*
%TO.P,U1,11,D10*%
%TO.N,/P11*%
X82870000Y-44313500D03*
%TO.P,U1,12,VCC_3V3*%
%TO.N,/3v3*%
X82870000Y-41773500D03*
%TO.P,U1,13,GND*%
%TO.N,/GND*%
X82870000Y-39233500D03*
%TO.P,U1,14,VUSB*%
%TO.N,5V*%
X82870000Y-36693500D03*
%TD*%
D11*
%TO.P,Hall2,1,Pin_1*%
%TO.N,5V*%
X92250000Y-35500000D03*
D12*
%TO.P,Hall2,2,Pin_2*%
%TO.N,/GND*%
X92250000Y-38040000D03*
%TO.P,Hall2,3,Pin_3*%
%TO.N,/P9*%
X92250000Y-40580000D03*
%TD*%
D11*
%TO.P,Hall1,1,Pin_1*%
%TO.N,5V*%
X87750000Y-35460000D03*
D12*
%TO.P,Hall1,2,Pin_2*%
%TO.N,/GND*%
X87750000Y-38000000D03*
%TO.P,Hall1,3,Pin_3*%
%TO.N,/P10*%
X87750000Y-40540000D03*
%TD*%
D17*
%TO.N,/GND*%
X81000000Y-76250000D03*
X81000000Y-73250000D03*
%TO.N,/P4*%
X68525000Y-68635000D03*
%TO.N,/P2*%
X68525000Y-66095000D03*
X72500000Y-61750000D03*
X73750000Y-61750000D03*
%TO.N,/P3*%
X68525000Y-67365000D03*
%TD*%
D18*
%TO.N,/GND*%
X87500000Y-51435000D02*
X86815000Y-50750000D01*
X86815000Y-50750000D02*
X82250000Y-50750000D01*
X92210000Y-38000000D02*
X92250000Y-37960000D01*
%TO.N,Net-(J1-Pin_4)*%
X77405000Y-66095000D02*
X78250000Y-66940000D01*
X73475000Y-66095000D02*
X77405000Y-66095000D01*
%TO.N,Net-(J1-Pin_2)*%
X73475000Y-68635000D02*
X74865000Y-68635000D01*
X74865000Y-68635000D02*
X78250000Y-72020000D01*
%TO.N,Net-(J1-Pin_5)*%
X73475000Y-64825000D02*
X77825000Y-64825000D01*
X77825000Y-64825000D02*
X78250000Y-64400000D01*
%TO.N,Net-(J1-Pin_3)*%
X73475000Y-67365000D02*
X76135000Y-67365000D01*
X76135000Y-67365000D02*
X78250000Y-69480000D01*
%TO.N,Net-(J2-Pin_5)*%
X95480000Y-64920000D02*
X96000000Y-64400000D01*
X91200000Y-64920000D02*
X95480000Y-64920000D01*
%TO.N,Net-(J2-Pin_4)*%
X95250000Y-66190000D02*
X96000000Y-66940000D01*
X91200000Y-66190000D02*
X95250000Y-66190000D01*
%TO.N,Net-(J2-Pin_2)*%
X91200000Y-68730000D02*
X92710000Y-68730000D01*
X92710000Y-68730000D02*
X96000000Y-72020000D01*
%TO.N,Net-(J2-Pin_3)*%
X93980000Y-67460000D02*
X96000000Y-69480000D01*
X91200000Y-67460000D02*
X93980000Y-67460000D01*
%TO.N,/P9*%
X91376160Y-44460000D02*
X92340000Y-44460000D01*
X86442660Y-49393500D02*
X91376160Y-44460000D01*
X82870000Y-49393500D02*
X86442660Y-49393500D01*
X92250000Y-44370000D02*
X92340000Y-44460000D01*
X92250000Y-40500000D02*
X92250000Y-44370000D01*
%TO.N,/P10*%
X82870000Y-46853500D02*
X85396500Y-46853500D01*
X85396500Y-46853500D02*
X87750000Y-44500000D01*
X87750000Y-40540000D02*
X87750000Y-44500000D01*
%TO.N,/P2*%
X72500000Y-61750000D02*
X73750000Y-61750000D01*
%TO.N,/P1*%
X66650000Y-62950000D02*
X66650000Y-37673500D01*
X68525000Y-64825000D02*
X66650000Y-62950000D01*
X66650000Y-37673500D02*
X67630000Y-36693500D01*
%TO.N,/P6*%
X67630000Y-49393500D02*
X84426500Y-66190000D01*
X84426500Y-66190000D02*
X86250000Y-66190000D01*
%TO.N,/P7*%
X83156500Y-67460000D02*
X86250000Y-67460000D01*
X67630000Y-51933500D02*
X83156500Y-67460000D01*
%TO.N,/P8*%
X87526000Y-56589500D02*
X82870000Y-51933500D01*
X87526000Y-68428999D02*
X87526000Y-56589500D01*
X86250000Y-68730000D02*
X87224999Y-68730000D01*
X87224999Y-68730000D02*
X87526000Y-68428999D01*
%TO.N,/P5*%
X68183500Y-46853500D02*
X67630000Y-46853500D01*
X86250000Y-64920000D02*
X68183500Y-46853500D01*
D19*
%TO.N,5V*%
X87500000Y-53975000D02*
X89624000Y-56099000D01*
X89624000Y-73208999D02*
X90225001Y-73810000D01*
X87750000Y-46500000D02*
X87760424Y-46500000D01*
X93040000Y-46460000D02*
X92340000Y-46460000D01*
X93701000Y-47821000D02*
X93701000Y-53726081D01*
X74320000Y-74560000D02*
X73475000Y-73715000D01*
X93701000Y-53726081D02*
X93452081Y-53975000D01*
D18*
X90853032Y-73810000D02*
X91200000Y-73810000D01*
D19*
X78401000Y-74711000D02*
X78250000Y-74560000D01*
X89624000Y-56601000D02*
X89624000Y-73208999D01*
X93452081Y-53975000D02*
X92250000Y-53975000D01*
X92250000Y-53975000D02*
X89624000Y-56601000D01*
X90225001Y-73810000D02*
X91200000Y-73810000D01*
X92250000Y-35500000D02*
X93701000Y-36951000D01*
D18*
X87790000Y-35420000D02*
X87750000Y-35460000D01*
D19*
X89624000Y-56099000D02*
X89624000Y-56601000D01*
X93701000Y-45799000D02*
X93040000Y-46460000D01*
X78250000Y-74560000D02*
X74320000Y-74560000D01*
X93701000Y-36951000D02*
X93701000Y-45799000D01*
X91950000Y-74560000D02*
X91200000Y-73810000D01*
X87760424Y-46500000D02*
X89201000Y-45059424D01*
X91200000Y-73810000D02*
X90299000Y-74711000D01*
X92340000Y-46460000D02*
X93701000Y-47821000D01*
X90299000Y-74711000D02*
X78401000Y-74711000D01*
X89201000Y-45059424D02*
X89201000Y-36911000D01*
X89201000Y-36911000D02*
X87750000Y-35460000D01*
X96000000Y-74560000D02*
X91950000Y-74560000D01*
D18*
X92210000Y-35460000D02*
X92250000Y-35420000D01*
%TD*%
%TA.AperFunction,Conductor*%
%TO.N,/GND*%
G36*
X99192539Y-34020185D02*
G01*
X99238294Y-34072989D01*
X99249500Y-34124500D01*
X99249500Y-77375500D01*
X99229815Y-77442539D01*
X99177011Y-77488294D01*
X99125500Y-77499500D01*
X66624500Y-77499500D01*
X66557461Y-77479815D01*
X66511706Y-77427011D01*
X66500500Y-77375500D01*
X66500500Y-73965001D01*
X67052704Y-73965001D01*
X67052899Y-73967486D01*
X67098718Y-74125198D01*
X67182314Y-74266552D01*
X67182321Y-74266561D01*
X67298438Y-74382678D01*
X67298447Y-74382685D01*
X67439803Y-74466282D01*
X67439806Y-74466283D01*
X67597504Y-74512099D01*
X67597510Y-74512100D01*
X67634350Y-74514999D01*
X67634366Y-74515000D01*
X68275000Y-74515000D01*
X68775000Y-74515000D01*
X69415634Y-74515000D01*
X69415649Y-74514999D01*
X69452489Y-74512100D01*
X69452495Y-74512099D01*
X69610193Y-74466283D01*
X69610196Y-74466282D01*
X69751552Y-74382685D01*
X69751561Y-74382678D01*
X69867678Y-74266561D01*
X69867685Y-74266552D01*
X69951281Y-74125198D01*
X69997100Y-73967486D01*
X69997295Y-73965001D01*
X69997295Y-73965000D01*
X68775000Y-73965000D01*
X68775000Y-74515000D01*
X68275000Y-74515000D01*
X68275000Y-73965000D01*
X67052705Y-73965000D01*
X67052704Y-73965001D01*
X66500500Y-73965001D01*
X66500500Y-63949097D01*
X66520185Y-63882058D01*
X66572989Y-63836303D01*
X66642147Y-63826359D01*
X66705703Y-63855384D01*
X66712181Y-63861416D01*
X67092345Y-64241580D01*
X67125830Y-64302903D01*
X67120846Y-64372595D01*
X67111397Y-64392380D01*
X67098258Y-64414596D01*
X67098254Y-64414607D01*
X67052402Y-64572426D01*
X67052401Y-64572432D01*
X67049500Y-64609298D01*
X67049500Y-65040701D01*
X67052401Y-65077567D01*
X67052402Y-65077573D01*
X67098254Y-65235393D01*
X67098255Y-65235396D01*
X67181917Y-65376862D01*
X67186702Y-65383031D01*
X67184256Y-65384927D01*
X67210857Y-65433642D01*
X67205873Y-65503334D01*
X67185069Y-65535703D01*
X67186702Y-65536969D01*
X67181917Y-65543137D01*
X67098255Y-65684603D01*
X67098254Y-65684606D01*
X67052402Y-65842426D01*
X67052401Y-65842432D01*
X67049500Y-65879298D01*
X67049500Y-66310701D01*
X67052401Y-66347567D01*
X67052402Y-66347573D01*
X67098254Y-66505393D01*
X67098255Y-66505396D01*
X67181917Y-66646862D01*
X67186702Y-66653031D01*
X67184256Y-66654927D01*
X67210857Y-66703642D01*
X67205873Y-66773334D01*
X67185069Y-66805703D01*
X67186702Y-66806969D01*
X67181917Y-66813137D01*
X67098255Y-66954603D01*
X67098254Y-66954606D01*
X67052402Y-67112426D01*
X67052401Y-67112432D01*
X67049500Y-67149298D01*
X67049500Y-67580701D01*
X67052401Y-67617567D01*
X67052402Y-67617573D01*
X67098254Y-67775393D01*
X67098255Y-67775396D01*
X67181917Y-67916862D01*
X67186702Y-67923031D01*
X67184256Y-67924927D01*
X67210857Y-67973642D01*
X67205873Y-68043334D01*
X67185069Y-68075703D01*
X67186702Y-68076969D01*
X67181917Y-68083137D01*
X67098255Y-68224603D01*
X67098254Y-68224606D01*
X67052402Y-68382426D01*
X67052401Y-68382432D01*
X67049500Y-68419298D01*
X67049500Y-68850701D01*
X67052401Y-68887567D01*
X67052402Y-68887573D01*
X67098254Y-69045393D01*
X67098255Y-69045396D01*
X67181917Y-69186862D01*
X67186702Y-69193031D01*
X67184256Y-69194927D01*
X67210857Y-69243642D01*
X67205873Y-69313334D01*
X67185069Y-69345703D01*
X67186702Y-69346969D01*
X67181917Y-69353137D01*
X67098255Y-69494603D01*
X67098254Y-69494606D01*
X67052402Y-69652426D01*
X67052401Y-69652432D01*
X67049500Y-69689298D01*
X67049500Y-70120701D01*
X67052401Y-70157567D01*
X67052402Y-70157573D01*
X67098254Y-70315393D01*
X67098255Y-70315396D01*
X67181917Y-70456862D01*
X67186702Y-70463031D01*
X67184256Y-70464927D01*
X67210857Y-70513642D01*
X67205873Y-70583334D01*
X67185069Y-70615703D01*
X67186702Y-70616969D01*
X67181917Y-70623137D01*
X67098255Y-70764603D01*
X67098254Y-70764606D01*
X67052402Y-70922426D01*
X67052401Y-70922432D01*
X67049500Y-70959298D01*
X67049500Y-71390701D01*
X67052401Y-71427567D01*
X67052402Y-71427573D01*
X67098254Y-71585393D01*
X67098255Y-71585396D01*
X67181917Y-71726862D01*
X67186702Y-71733031D01*
X67184256Y-71734927D01*
X67210857Y-71783642D01*
X67205873Y-71853334D01*
X67185069Y-71885703D01*
X67186702Y-71886969D01*
X67181917Y-71893137D01*
X67098255Y-72034603D01*
X67098254Y-72034606D01*
X67052402Y-72192426D01*
X67052401Y-72192432D01*
X67049500Y-72229298D01*
X67049500Y-72660701D01*
X67052401Y-72697567D01*
X67052402Y-72697573D01*
X67098254Y-72855393D01*
X67098255Y-72855396D01*
X67181917Y-72996862D01*
X67186702Y-73003031D01*
X67184369Y-73004840D01*
X67211210Y-73053995D01*
X67206226Y-73123687D01*
X67185470Y-73156021D01*
X67187097Y-73157283D01*
X67182313Y-73163449D01*
X67098718Y-73304801D01*
X67052899Y-73462513D01*
X67052704Y-73464998D01*
X67052705Y-73465000D01*
X69997295Y-73465000D01*
X69997295Y-73464998D01*
X69997100Y-73462513D01*
X69951281Y-73304801D01*
X69867685Y-73163447D01*
X69862900Y-73157278D01*
X69865366Y-73155364D01*
X69838802Y-73106776D01*
X69843749Y-73037082D01*
X69864856Y-73004232D01*
X69863301Y-73003026D01*
X69868077Y-72996868D01*
X69868081Y-72996865D01*
X69951744Y-72855398D01*
X69997598Y-72697569D01*
X70000500Y-72660694D01*
X70000500Y-72229306D01*
X69997598Y-72192431D01*
X69979345Y-72129606D01*
X69951745Y-72034606D01*
X69951744Y-72034603D01*
X69951744Y-72034602D01*
X69868081Y-71893135D01*
X69868078Y-71893132D01*
X69863298Y-71886969D01*
X69865750Y-71885066D01*
X69839155Y-71836421D01*
X69844104Y-71766726D01*
X69864940Y-71734304D01*
X69863298Y-71733031D01*
X69868075Y-71726870D01*
X69868081Y-71726865D01*
X69951744Y-71585398D01*
X69997598Y-71427569D01*
X70000500Y-71390694D01*
X70000500Y-70959306D01*
X69997598Y-70922431D01*
X69980898Y-70864951D01*
X69951745Y-70764606D01*
X69951744Y-70764603D01*
X69951744Y-70764602D01*
X69868081Y-70623135D01*
X69868078Y-70623132D01*
X69863298Y-70616969D01*
X69865750Y-70615066D01*
X69839155Y-70566421D01*
X69844104Y-70496726D01*
X69864940Y-70464304D01*
X69863298Y-70463031D01*
X69868075Y-70456870D01*
X69868081Y-70456865D01*
X69951744Y-70315398D01*
X69997598Y-70157569D01*
X70000500Y-70120694D01*
X70000500Y-69689306D01*
X69997598Y-69652431D01*
X69995044Y-69643641D01*
X69951745Y-69494606D01*
X69951744Y-69494603D01*
X69951744Y-69494602D01*
X69868081Y-69353135D01*
X69868078Y-69353132D01*
X69863298Y-69346969D01*
X69865750Y-69345066D01*
X69839155Y-69296421D01*
X69844104Y-69226726D01*
X69864940Y-69194304D01*
X69863298Y-69193031D01*
X69868075Y-69186870D01*
X69868081Y-69186865D01*
X69951744Y-69045398D01*
X69997598Y-68887569D01*
X70000500Y-68850694D01*
X70000500Y-68419306D01*
X69997598Y-68382431D01*
X69991454Y-68361284D01*
X69951745Y-68224606D01*
X69951744Y-68224603D01*
X69951744Y-68224602D01*
X69868081Y-68083135D01*
X69868078Y-68083132D01*
X69863298Y-68076969D01*
X69865750Y-68075066D01*
X69839155Y-68026421D01*
X69844104Y-67956726D01*
X69864940Y-67924304D01*
X69863298Y-67923031D01*
X69868075Y-67916870D01*
X69868081Y-67916865D01*
X69951744Y-67775398D01*
X69997598Y-67617569D01*
X70000500Y-67580694D01*
X70000500Y-67149306D01*
X69997598Y-67112431D01*
X69991454Y-67091284D01*
X69951745Y-66954606D01*
X69951744Y-66954603D01*
X69951744Y-66954602D01*
X69868081Y-66813135D01*
X69868078Y-66813132D01*
X69863298Y-66806969D01*
X69865750Y-66805066D01*
X69839155Y-66756421D01*
X69844104Y-66686726D01*
X69864940Y-66654304D01*
X69863298Y-66653031D01*
X69868075Y-66646870D01*
X69868081Y-66646865D01*
X69951744Y-66505398D01*
X69997598Y-66347569D01*
X70000500Y-66310694D01*
X70000500Y-65879306D01*
X69997598Y-65842431D01*
X69980898Y-65784951D01*
X69951745Y-65684606D01*
X69951744Y-65684603D01*
X69951744Y-65684602D01*
X69868081Y-65543135D01*
X69868078Y-65543132D01*
X69863298Y-65536969D01*
X69865750Y-65535066D01*
X69839155Y-65486421D01*
X69844104Y-65416726D01*
X69864940Y-65384304D01*
X69863298Y-65383031D01*
X69868075Y-65376870D01*
X69868081Y-65376865D01*
X69951744Y-65235398D01*
X69997598Y-65077569D01*
X70000500Y-65040694D01*
X70000500Y-64609306D01*
X69997598Y-64572431D01*
X69979344Y-64509602D01*
X69951745Y-64414606D01*
X69951744Y-64414603D01*
X69951744Y-64414602D01*
X69868081Y-64273135D01*
X69868079Y-64273133D01*
X69868076Y-64273129D01*
X69751870Y-64156923D01*
X69751862Y-64156917D01*
X69610396Y-64073255D01*
X69610393Y-64073254D01*
X69452573Y-64027402D01*
X69452567Y-64027401D01*
X69415701Y-64024500D01*
X69415694Y-64024500D01*
X68625097Y-64024500D01*
X68558058Y-64004815D01*
X68537416Y-63988181D01*
X67286819Y-62737584D01*
X67253334Y-62676261D01*
X67250500Y-62649903D01*
X67250500Y-61671153D01*
X71699500Y-61671153D01*
X71699500Y-61828846D01*
X71730261Y-61983489D01*
X71730264Y-61983501D01*
X71790602Y-62129172D01*
X71790609Y-62129185D01*
X71878210Y-62260288D01*
X71878213Y-62260292D01*
X71989707Y-62371786D01*
X71989711Y-62371789D01*
X72120814Y-62459390D01*
X72120827Y-62459397D01*
X72266498Y-62519735D01*
X72266503Y-62519737D01*
X72421153Y-62550499D01*
X72421156Y-62550500D01*
X72421158Y-62550500D01*
X72578844Y-62550500D01*
X72578845Y-62550499D01*
X72733497Y-62519737D01*
X72879179Y-62459394D01*
X72879185Y-62459390D01*
X73010875Y-62371398D01*
X73028921Y-62365747D01*
X73044831Y-62355523D01*
X73075792Y-62351071D01*
X73077553Y-62350520D01*
X73079766Y-62350500D01*
X73170234Y-62350500D01*
X73237273Y-62370185D01*
X73239125Y-62371398D01*
X73370814Y-62459390D01*
X73370827Y-62459397D01*
X73516498Y-62519735D01*
X73516503Y-62519737D01*
X73671153Y-62550499D01*
X73671156Y-62550500D01*
X73671158Y-62550500D01*
X73828844Y-62550500D01*
X73828845Y-62550499D01*
X73983497Y-62519737D01*
X74129179Y-62459394D01*
X74260289Y-62371789D01*
X74371789Y-62260289D01*
X74459394Y-62129179D01*
X74519737Y-61983497D01*
X74550500Y-61828842D01*
X74550500Y-61671158D01*
X74550500Y-61671155D01*
X74550499Y-61671153D01*
X74519738Y-61516510D01*
X74519737Y-61516503D01*
X74519735Y-61516498D01*
X74459397Y-61370827D01*
X74459390Y-61370814D01*
X74371789Y-61239711D01*
X74371786Y-61239707D01*
X74260292Y-61128213D01*
X74260288Y-61128210D01*
X74129185Y-61040609D01*
X74129172Y-61040602D01*
X73983501Y-60980264D01*
X73983489Y-60980261D01*
X73828845Y-60949500D01*
X73828842Y-60949500D01*
X73671158Y-60949500D01*
X73671155Y-60949500D01*
X73516510Y-60980261D01*
X73516498Y-60980264D01*
X73370827Y-61040602D01*
X73370814Y-61040609D01*
X73239125Y-61128602D01*
X73221078Y-61134252D01*
X73205169Y-61144477D01*
X73174207Y-61148928D01*
X73172447Y-61149480D01*
X73170234Y-61149500D01*
X73079766Y-61149500D01*
X73012727Y-61129815D01*
X73010875Y-61128602D01*
X72879185Y-61040609D01*
X72879172Y-61040602D01*
X72733501Y-60980264D01*
X72733489Y-60980261D01*
X72578845Y-60949500D01*
X72578842Y-60949500D01*
X72421158Y-60949500D01*
X72421155Y-60949500D01*
X72266510Y-60980261D01*
X72266498Y-60980264D01*
X72120827Y-61040602D01*
X72120814Y-61040609D01*
X71989711Y-61128210D01*
X71989707Y-61128213D01*
X71878213Y-61239707D01*
X71878210Y-61239711D01*
X71790609Y-61370814D01*
X71790602Y-61370827D01*
X71730264Y-61516498D01*
X71730261Y-61516510D01*
X71699500Y-61671153D01*
X67250500Y-61671153D01*
X67250500Y-53212781D01*
X67270185Y-53145742D01*
X67322989Y-53099987D01*
X67392147Y-53090043D01*
X67393898Y-53090308D01*
X67537166Y-53113000D01*
X67537171Y-53113000D01*
X67722833Y-53113000D01*
X67790892Y-53102219D01*
X67865398Y-53090419D01*
X67934690Y-53099373D01*
X67972476Y-53125211D01*
X77787853Y-62940588D01*
X77821338Y-63001911D01*
X77816354Y-63071603D01*
X77774482Y-63127536D01*
X77738497Y-63146198D01*
X77731585Y-63148444D01*
X77542179Y-63244951D01*
X77370213Y-63369890D01*
X77219890Y-63520213D01*
X77094951Y-63692179D01*
X76998444Y-63881585D01*
X76998443Y-63881587D01*
X76998443Y-63881588D01*
X76932754Y-64083757D01*
X76927029Y-64119900D01*
X76897101Y-64183032D01*
X76837790Y-64219964D01*
X76804557Y-64224500D01*
X74820808Y-64224500D01*
X74753769Y-64204815D01*
X74733126Y-64188180D01*
X74701870Y-64156923D01*
X74701862Y-64156917D01*
X74560396Y-64073255D01*
X74560393Y-64073254D01*
X74402573Y-64027402D01*
X74402567Y-64027401D01*
X74365701Y-64024500D01*
X74365694Y-64024500D01*
X72584306Y-64024500D01*
X72584298Y-64024500D01*
X72547432Y-64027401D01*
X72547426Y-64027402D01*
X72389606Y-64073254D01*
X72389603Y-64073255D01*
X72248137Y-64156917D01*
X72248129Y-64156923D01*
X72131923Y-64273129D01*
X72131917Y-64273137D01*
X72048255Y-64414603D01*
X72048254Y-64414606D01*
X72002402Y-64572426D01*
X72002401Y-64572432D01*
X71999500Y-64609298D01*
X71999500Y-65040701D01*
X72002401Y-65077567D01*
X72002402Y-65077573D01*
X72048254Y-65235393D01*
X72048255Y-65235396D01*
X72131917Y-65376862D01*
X72136702Y-65383031D01*
X72134256Y-65384927D01*
X72160857Y-65433642D01*
X72155873Y-65503334D01*
X72135069Y-65535703D01*
X72136702Y-65536969D01*
X72131917Y-65543137D01*
X72048255Y-65684603D01*
X72048254Y-65684606D01*
X72002402Y-65842426D01*
X72002401Y-65842432D01*
X71999500Y-65879298D01*
X71999500Y-66310701D01*
X72002401Y-66347567D01*
X72002402Y-66347573D01*
X72048254Y-66505393D01*
X72048255Y-66505396D01*
X72131917Y-66646862D01*
X72136702Y-66653031D01*
X72134256Y-66654927D01*
X72160857Y-66703642D01*
X72155873Y-66773334D01*
X72135069Y-66805703D01*
X72136702Y-66806969D01*
X72131917Y-66813137D01*
X72048255Y-66954603D01*
X72048254Y-66954606D01*
X72002402Y-67112426D01*
X72002401Y-67112432D01*
X71999500Y-67149298D01*
X71999500Y-67580701D01*
X72002401Y-67617567D01*
X72002402Y-67617573D01*
X72048254Y-67775393D01*
X72048255Y-67775396D01*
X72131917Y-67916862D01*
X72136702Y-67923031D01*
X72134256Y-67924927D01*
X72160857Y-67973642D01*
X72155873Y-68043334D01*
X72135069Y-68075703D01*
X72136702Y-68076969D01*
X72131917Y-68083137D01*
X72048255Y-68224603D01*
X72048254Y-68224606D01*
X72002402Y-68382426D01*
X72002401Y-68382432D01*
X71999500Y-68419298D01*
X71999500Y-68850701D01*
X72002401Y-68887567D01*
X72002402Y-68887573D01*
X72048254Y-69045393D01*
X72048255Y-69045396D01*
X72131917Y-69186862D01*
X72136702Y-69193031D01*
X72134256Y-69194927D01*
X72160857Y-69243642D01*
X72155873Y-69313334D01*
X72135069Y-69345703D01*
X72136702Y-69346969D01*
X72131917Y-69353137D01*
X72048255Y-69494603D01*
X72048254Y-69494606D01*
X72002402Y-69652426D01*
X72002401Y-69652432D01*
X71999500Y-69689298D01*
X71999500Y-70120701D01*
X72002401Y-70157567D01*
X72002402Y-70157573D01*
X72048254Y-70315393D01*
X72048255Y-70315396D01*
X72131917Y-70456862D01*
X72136702Y-70463031D01*
X72134256Y-70464927D01*
X72160857Y-70513642D01*
X72155873Y-70583334D01*
X72135069Y-70615703D01*
X72136702Y-70616969D01*
X72131917Y-70623137D01*
X72048255Y-70764603D01*
X72048254Y-70764606D01*
X72002402Y-70922426D01*
X72002401Y-70922432D01*
X71999500Y-70959298D01*
X71999500Y-71390701D01*
X72002401Y-71427567D01*
X72002402Y-71427573D01*
X72048254Y-71585393D01*
X72048255Y-71585396D01*
X72131917Y-71726862D01*
X72136702Y-71733031D01*
X72134256Y-71734927D01*
X72160857Y-71783642D01*
X72155873Y-71853334D01*
X72135069Y-71885703D01*
X72136702Y-71886969D01*
X72131917Y-71893137D01*
X72048255Y-72034603D01*
X72048254Y-72034606D01*
X72002402Y-72192426D01*
X72002401Y-72192432D01*
X71999500Y-72229298D01*
X71999500Y-72660701D01*
X72002401Y-72697567D01*
X72002402Y-72697573D01*
X72048254Y-72855393D01*
X72048255Y-72855396D01*
X72131917Y-72996862D01*
X72136702Y-73003031D01*
X72134256Y-73004927D01*
X72160857Y-73053642D01*
X72155873Y-73123334D01*
X72135069Y-73155703D01*
X72136702Y-73156969D01*
X72131917Y-73163137D01*
X72048255Y-73304603D01*
X72048254Y-73304606D01*
X72002402Y-73462426D01*
X72002401Y-73462432D01*
X71999500Y-73499298D01*
X71999500Y-73930701D01*
X72002401Y-73967567D01*
X72002402Y-73967573D01*
X72048254Y-74125393D01*
X72048255Y-74125396D01*
X72131917Y-74266862D01*
X72131923Y-74266870D01*
X72248129Y-74383076D01*
X72248133Y-74383079D01*
X72248135Y-74383081D01*
X72389602Y-74466744D01*
X72431224Y-74478836D01*
X72547426Y-74512597D01*
X72547429Y-74512597D01*
X72547431Y-74512598D01*
X72584306Y-74515500D01*
X72950638Y-74515500D01*
X73017677Y-74535185D01*
X73038319Y-74551819D01*
X73620536Y-75134035D01*
X73745965Y-75259464D01*
X73745966Y-75259465D01*
X73893446Y-75358009D01*
X73893459Y-75358016D01*
X74016363Y-75408923D01*
X74057334Y-75425894D01*
X74057336Y-75425894D01*
X74057341Y-75425896D01*
X74231304Y-75460499D01*
X74231307Y-75460500D01*
X74231309Y-75460500D01*
X76798560Y-75460500D01*
X76865599Y-75480185D01*
X76911354Y-75532989D01*
X76914742Y-75541167D01*
X76956202Y-75652328D01*
X76956206Y-75652335D01*
X77042452Y-75767544D01*
X77042455Y-75767547D01*
X77157664Y-75853793D01*
X77157671Y-75853797D01*
X77292517Y-75904091D01*
X77292516Y-75904091D01*
X77299444Y-75904835D01*
X77352127Y-75910500D01*
X79147872Y-75910499D01*
X79207483Y-75904091D01*
X79342331Y-75853796D01*
X79457546Y-75767546D01*
X79482289Y-75734492D01*
X79537166Y-75661189D01*
X79593100Y-75619318D01*
X79636432Y-75611500D01*
X90387693Y-75611500D01*
X90387694Y-75611499D01*
X90561666Y-75576895D01*
X90643606Y-75542953D01*
X90725547Y-75509013D01*
X90818906Y-75446632D01*
X90873036Y-75410464D01*
X91112318Y-75171180D01*
X91117046Y-75168598D01*
X91120017Y-75164105D01*
X91147384Y-75152032D01*
X91173640Y-75137696D01*
X91179013Y-75138080D01*
X91183943Y-75135906D01*
X91213495Y-75140546D01*
X91243332Y-75142680D01*
X91249063Y-75146131D01*
X91252967Y-75146744D01*
X91270022Y-75158750D01*
X91282408Y-75166208D01*
X91285121Y-75168621D01*
X91375964Y-75259464D01*
X91414234Y-75285035D01*
X91523453Y-75358013D01*
X91605393Y-75391953D01*
X91687334Y-75425895D01*
X91791588Y-75446632D01*
X91861303Y-75460499D01*
X91861307Y-75460500D01*
X91861308Y-75460500D01*
X91861309Y-75460500D01*
X94548560Y-75460500D01*
X94615599Y-75480185D01*
X94661354Y-75532989D01*
X94664742Y-75541167D01*
X94706202Y-75652328D01*
X94706206Y-75652335D01*
X94792452Y-75767544D01*
X94792455Y-75767547D01*
X94907664Y-75853793D01*
X94907671Y-75853797D01*
X95042517Y-75904091D01*
X95042516Y-75904091D01*
X95049444Y-75904835D01*
X95102127Y-75910500D01*
X96897872Y-75910499D01*
X96957483Y-75904091D01*
X97092331Y-75853796D01*
X97207546Y-75767546D01*
X97293796Y-75652331D01*
X97344091Y-75517483D01*
X97350500Y-75457873D01*
X97350499Y-73662128D01*
X97344091Y-73602517D01*
X97341028Y-73594306D01*
X97293797Y-73467671D01*
X97293793Y-73467664D01*
X97207547Y-73352455D01*
X97207544Y-73352452D01*
X97092335Y-73266206D01*
X97092328Y-73266202D01*
X96960917Y-73217189D01*
X96904983Y-73175318D01*
X96880566Y-73109853D01*
X96895418Y-73041580D01*
X96916563Y-73013332D01*
X97030104Y-72899792D01*
X97155051Y-72727816D01*
X97251557Y-72538412D01*
X97317246Y-72336243D01*
X97350500Y-72126287D01*
X97350500Y-71913713D01*
X97317246Y-71703757D01*
X97251557Y-71501588D01*
X97155051Y-71312184D01*
X97155049Y-71312181D01*
X97155048Y-71312179D01*
X97030109Y-71140213D01*
X96879786Y-70989890D01*
X96707820Y-70864951D01*
X96707115Y-70864591D01*
X96699054Y-70860485D01*
X96648259Y-70812512D01*
X96631463Y-70744692D01*
X96653999Y-70678556D01*
X96699054Y-70639515D01*
X96707816Y-70635051D01*
X96802278Y-70566421D01*
X96879786Y-70510109D01*
X96879788Y-70510106D01*
X96879792Y-70510104D01*
X97030104Y-70359792D01*
X97030106Y-70359788D01*
X97030109Y-70359786D01*
X97155048Y-70187820D01*
X97155047Y-70187820D01*
X97155051Y-70187816D01*
X97251557Y-69998412D01*
X97317246Y-69796243D01*
X97350500Y-69586287D01*
X97350500Y-69373713D01*
X97317246Y-69163757D01*
X97251557Y-68961588D01*
X97155051Y-68772184D01*
X97155049Y-68772181D01*
X97155048Y-68772179D01*
X97030109Y-68600213D01*
X96879786Y-68449890D01*
X96707820Y-68324951D01*
X96707115Y-68324591D01*
X96699054Y-68320485D01*
X96648259Y-68272512D01*
X96631463Y-68204692D01*
X96653999Y-68138556D01*
X96699054Y-68099515D01*
X96707816Y-68095051D01*
X96791158Y-68034500D01*
X96879786Y-67970109D01*
X96879788Y-67970106D01*
X96879792Y-67970104D01*
X97030104Y-67819792D01*
X97030106Y-67819788D01*
X97030109Y-67819786D01*
X97155048Y-67647820D01*
X97155047Y-67647820D01*
X97155051Y-67647816D01*
X97251557Y-67458412D01*
X97317246Y-67256243D01*
X97350500Y-67046287D01*
X97350500Y-66833713D01*
X97317246Y-66623757D01*
X97251557Y-66421588D01*
X97155051Y-66232184D01*
X97155049Y-66232181D01*
X97155048Y-66232179D01*
X97030109Y-66060213D01*
X96879786Y-65909890D01*
X96707820Y-65784951D01*
X96707115Y-65784591D01*
X96699054Y-65780485D01*
X96648259Y-65732512D01*
X96631463Y-65664692D01*
X96653999Y-65598556D01*
X96699054Y-65559515D01*
X96707816Y-65555051D01*
X96755372Y-65520500D01*
X96879786Y-65430109D01*
X96879788Y-65430106D01*
X96879792Y-65430104D01*
X97030104Y-65279792D01*
X97030106Y-65279788D01*
X97030109Y-65279786D01*
X97155048Y-65107820D01*
X97155047Y-65107820D01*
X97155051Y-65107816D01*
X97251557Y-64918412D01*
X97317246Y-64716243D01*
X97350500Y-64506287D01*
X97350500Y-64293713D01*
X97317246Y-64083757D01*
X97251557Y-63881588D01*
X97155051Y-63692184D01*
X97155049Y-63692181D01*
X97155048Y-63692179D01*
X97030109Y-63520213D01*
X96879786Y-63369890D01*
X96707820Y-63244951D01*
X96518414Y-63148444D01*
X96518413Y-63148443D01*
X96518412Y-63148443D01*
X96316243Y-63082754D01*
X96316241Y-63082753D01*
X96316240Y-63082753D01*
X96154957Y-63057208D01*
X96106287Y-63049500D01*
X95893713Y-63049500D01*
X95845042Y-63057208D01*
X95683760Y-63082753D01*
X95481585Y-63148444D01*
X95292179Y-63244951D01*
X95120213Y-63369890D01*
X94969890Y-63520213D01*
X94844951Y-63692179D01*
X94748444Y-63881585D01*
X94682753Y-64083760D01*
X94661983Y-64214898D01*
X94632054Y-64278033D01*
X94572742Y-64314964D01*
X94539510Y-64319500D01*
X92545808Y-64319500D01*
X92478769Y-64299815D01*
X92458126Y-64283180D01*
X92426870Y-64251923D01*
X92426862Y-64251917D01*
X92285396Y-64168255D01*
X92285393Y-64168254D01*
X92127573Y-64122402D01*
X92127567Y-64122401D01*
X92090701Y-64119500D01*
X92090694Y-64119500D01*
X90648500Y-64119500D01*
X90581461Y-64099815D01*
X90535706Y-64047011D01*
X90524500Y-63995500D01*
X90524500Y-57025362D01*
X90544185Y-56958323D01*
X90560819Y-56937681D01*
X92136681Y-55361819D01*
X92198004Y-55328334D01*
X92224362Y-55325500D01*
X92356286Y-55325500D01*
X92356287Y-55325500D01*
X92566243Y-55292246D01*
X92768412Y-55226557D01*
X92957816Y-55130051D01*
X93031523Y-55076500D01*
X93129786Y-55005109D01*
X93129788Y-55005106D01*
X93129792Y-55005104D01*
X93223077Y-54911819D01*
X93284400Y-54878334D01*
X93310758Y-54875500D01*
X93540774Y-54875500D01*
X93540775Y-54875499D01*
X93714747Y-54840895D01*
X93796687Y-54806953D01*
X93878628Y-54773013D01*
X93967040Y-54713936D01*
X94026117Y-54674464D01*
X94400464Y-54300116D01*
X94442192Y-54237666D01*
X94499013Y-54152628D01*
X94535852Y-54063691D01*
X94566895Y-53988747D01*
X94601500Y-53814772D01*
X94601500Y-53637389D01*
X94601500Y-47732309D01*
X94566895Y-47558334D01*
X94502434Y-47402712D01*
X94499013Y-47394453D01*
X94421640Y-47278657D01*
X94400465Y-47246966D01*
X94365500Y-47212001D01*
X94275035Y-47121536D01*
X94051180Y-46897681D01*
X94017695Y-46836358D01*
X94022679Y-46766666D01*
X94051180Y-46722319D01*
X94191565Y-46581935D01*
X94400464Y-46373036D01*
X94453325Y-46293923D01*
X94499013Y-46225547D01*
X94536677Y-46134617D01*
X94566895Y-46061666D01*
X94601500Y-45887692D01*
X94601500Y-45710308D01*
X94601500Y-36862309D01*
X94597876Y-36844091D01*
X94566895Y-36688334D01*
X94510562Y-36552335D01*
X94499014Y-36524455D01*
X94499009Y-36524446D01*
X94400464Y-36376964D01*
X94400461Y-36376960D01*
X93636818Y-35613317D01*
X93603333Y-35551994D01*
X93600499Y-35525636D01*
X93600499Y-34602129D01*
X93600498Y-34602123D01*
X93600497Y-34602116D01*
X93594091Y-34542517D01*
X93543796Y-34407669D01*
X93543795Y-34407668D01*
X93543793Y-34407664D01*
X93457547Y-34292455D01*
X93457544Y-34292452D01*
X93365792Y-34223766D01*
X93323921Y-34167832D01*
X93318937Y-34098141D01*
X93352423Y-34036818D01*
X93413746Y-34003334D01*
X93440103Y-34000500D01*
X99125500Y-34000500D01*
X99192539Y-34020185D01*
G37*
%TD.AperFunction*%
%TA.AperFunction,Conductor*%
G36*
X87592677Y-55345185D02*
G01*
X87613319Y-55361819D01*
X88687181Y-56435680D01*
X88720666Y-56497003D01*
X88723500Y-56523361D01*
X88723500Y-73297695D01*
X88758103Y-73471657D01*
X88758105Y-73471665D01*
X88789449Y-73547335D01*
X88827437Y-73639048D01*
X88834906Y-73708517D01*
X88803630Y-73770996D01*
X88743541Y-73806648D01*
X88712876Y-73810500D01*
X79724499Y-73810500D01*
X79657460Y-73790815D01*
X79611705Y-73738011D01*
X79600499Y-73686500D01*
X79600499Y-73662129D01*
X79600498Y-73662123D01*
X79600182Y-73659184D01*
X79594091Y-73602517D01*
X79591028Y-73594306D01*
X79543797Y-73467671D01*
X79543793Y-73467664D01*
X79457547Y-73352455D01*
X79457544Y-73352452D01*
X79342335Y-73266206D01*
X79342328Y-73266202D01*
X79210917Y-73217189D01*
X79154983Y-73175318D01*
X79130566Y-73109853D01*
X79145418Y-73041580D01*
X79166563Y-73013332D01*
X79280104Y-72899792D01*
X79405051Y-72727816D01*
X79501557Y-72538412D01*
X79567246Y-72336243D01*
X79600500Y-72126287D01*
X79600500Y-71913713D01*
X79567246Y-71703757D01*
X79501557Y-71501588D01*
X79405051Y-71312184D01*
X79405049Y-71312181D01*
X79405048Y-71312179D01*
X79280109Y-71140213D01*
X79129786Y-70989890D01*
X78957820Y-70864951D01*
X78957115Y-70864591D01*
X78949054Y-70860485D01*
X78898259Y-70812512D01*
X78881463Y-70744692D01*
X78903999Y-70678556D01*
X78949054Y-70639515D01*
X78957816Y-70635051D01*
X79052278Y-70566421D01*
X79129786Y-70510109D01*
X79129788Y-70510106D01*
X79129792Y-70510104D01*
X79280104Y-70359792D01*
X79280106Y-70359788D01*
X79280109Y-70359786D01*
X79405048Y-70187820D01*
X79405047Y-70187820D01*
X79405051Y-70187816D01*
X79501557Y-69998412D01*
X79567246Y-69796243D01*
X79600500Y-69586287D01*
X79600500Y-69373713D01*
X79567246Y-69163757D01*
X79501557Y-68961588D01*
X79405051Y-68772184D01*
X79405049Y-68772181D01*
X79405048Y-68772179D01*
X79280109Y-68600213D01*
X79129786Y-68449890D01*
X78957820Y-68324951D01*
X78957115Y-68324591D01*
X78949054Y-68320485D01*
X78898259Y-68272512D01*
X78881463Y-68204692D01*
X78903999Y-68138556D01*
X78949054Y-68099515D01*
X78957816Y-68095051D01*
X79041158Y-68034500D01*
X79129786Y-67970109D01*
X79129788Y-67970106D01*
X79129792Y-67970104D01*
X79280104Y-67819792D01*
X79280106Y-67819788D01*
X79280109Y-67819786D01*
X79405048Y-67647820D01*
X79405047Y-67647820D01*
X79405051Y-67647816D01*
X79501557Y-67458412D01*
X79567246Y-67256243D01*
X79600500Y-67046287D01*
X79600500Y-66833713D01*
X79567246Y-66623757D01*
X79501557Y-66421588D01*
X79405051Y-66232184D01*
X79405049Y-66232181D01*
X79405048Y-66232179D01*
X79280109Y-66060213D01*
X79129786Y-65909890D01*
X78957820Y-65784951D01*
X78957115Y-65784591D01*
X78949054Y-65780485D01*
X78898259Y-65732512D01*
X78881463Y-65664692D01*
X78903999Y-65598556D01*
X78949054Y-65559515D01*
X78957816Y-65555051D01*
X79005372Y-65520500D01*
X79129786Y-65430109D01*
X79129788Y-65430106D01*
X79129792Y-65430104D01*
X79280104Y-65279792D01*
X79280106Y-65279788D01*
X79280109Y-65279786D01*
X79405048Y-65107820D01*
X79405047Y-65107820D01*
X79405051Y-65107816D01*
X79501557Y-64918412D01*
X79503799Y-64911512D01*
X79543235Y-64853836D01*
X79607593Y-64826637D01*
X79676440Y-64838549D01*
X79709412Y-64862147D01*
X82671639Y-67824374D01*
X82671649Y-67824385D01*
X82675979Y-67828715D01*
X82675980Y-67828716D01*
X82787784Y-67940520D01*
X82867925Y-67986789D01*
X82924715Y-68019577D01*
X83077443Y-68060501D01*
X83077446Y-68060501D01*
X83243153Y-68060501D01*
X83243169Y-68060500D01*
X84759093Y-68060500D01*
X84826132Y-68080185D01*
X84871887Y-68132989D01*
X84881831Y-68202147D01*
X84865825Y-68247620D01*
X84823257Y-68319599D01*
X84823254Y-68319606D01*
X84777402Y-68477426D01*
X84777401Y-68477432D01*
X84774500Y-68514298D01*
X84774500Y-68945701D01*
X84777401Y-68982567D01*
X84777402Y-68982573D01*
X84823254Y-69140393D01*
X84823255Y-69140396D01*
X84823256Y-69140398D01*
X84837072Y-69163760D01*
X84906917Y-69281862D01*
X84911702Y-69288031D01*
X84909256Y-69289927D01*
X84935857Y-69338642D01*
X84930873Y-69408334D01*
X84910069Y-69440703D01*
X84911702Y-69441969D01*
X84906917Y-69448137D01*
X84823255Y-69589603D01*
X84823254Y-69589606D01*
X84777402Y-69747426D01*
X84777401Y-69747432D01*
X84774500Y-69784298D01*
X84774500Y-70215701D01*
X84777401Y-70252567D01*
X84777402Y-70252573D01*
X84823254Y-70410393D01*
X84823255Y-70410396D01*
X84906917Y-70551862D01*
X84911702Y-70558031D01*
X84909256Y-70559927D01*
X84935857Y-70608642D01*
X84930873Y-70678334D01*
X84910069Y-70710703D01*
X84911702Y-70711969D01*
X84906917Y-70718137D01*
X84823255Y-70859603D01*
X84823254Y-70859606D01*
X84777402Y-71017426D01*
X84777401Y-71017432D01*
X84774500Y-71054298D01*
X84774500Y-71485701D01*
X84777401Y-71522567D01*
X84777402Y-71522573D01*
X84823254Y-71680393D01*
X84823255Y-71680396D01*
X84823256Y-71680398D01*
X84837072Y-71703760D01*
X84906917Y-71821862D01*
X84911702Y-71828031D01*
X84909256Y-71829927D01*
X84935857Y-71878642D01*
X84930873Y-71948334D01*
X84910069Y-71980703D01*
X84911702Y-71981969D01*
X84906917Y-71988137D01*
X84823255Y-72129603D01*
X84823254Y-72129606D01*
X84777402Y-72287426D01*
X84777401Y-72287432D01*
X84774500Y-72324298D01*
X84774500Y-72755701D01*
X84777401Y-72792567D01*
X84777402Y-72792573D01*
X84823254Y-72950393D01*
X84823255Y-72950396D01*
X84906917Y-73091862D01*
X84911702Y-73098031D01*
X84909369Y-73099840D01*
X84936210Y-73148995D01*
X84931226Y-73218687D01*
X84910470Y-73251021D01*
X84912097Y-73252283D01*
X84907313Y-73258449D01*
X84823718Y-73399801D01*
X84777899Y-73557513D01*
X84777704Y-73559998D01*
X84777705Y-73560000D01*
X87722295Y-73560000D01*
X87722295Y-73559998D01*
X87722100Y-73557513D01*
X87676281Y-73399801D01*
X87592685Y-73258447D01*
X87587900Y-73252278D01*
X87590366Y-73250364D01*
X87563802Y-73201776D01*
X87568749Y-73132082D01*
X87589856Y-73099232D01*
X87588301Y-73098026D01*
X87593077Y-73091868D01*
X87593081Y-73091865D01*
X87676744Y-72950398D01*
X87722598Y-72792569D01*
X87725500Y-72755694D01*
X87725500Y-72324306D01*
X87722598Y-72287431D01*
X87676744Y-72129602D01*
X87593081Y-71988135D01*
X87593078Y-71988132D01*
X87588298Y-71981969D01*
X87590750Y-71980066D01*
X87564155Y-71931421D01*
X87569104Y-71861726D01*
X87589940Y-71829304D01*
X87588298Y-71828031D01*
X87593075Y-71821870D01*
X87593081Y-71821865D01*
X87676744Y-71680398D01*
X87722598Y-71522569D01*
X87725500Y-71485694D01*
X87725500Y-71054306D01*
X87722598Y-71017431D01*
X87714598Y-70989896D01*
X87676745Y-70859606D01*
X87676744Y-70859603D01*
X87676744Y-70859602D01*
X87593081Y-70718135D01*
X87593078Y-70718132D01*
X87588298Y-70711969D01*
X87590750Y-70710066D01*
X87564155Y-70661421D01*
X87569104Y-70591726D01*
X87589940Y-70559304D01*
X87588298Y-70558031D01*
X87593075Y-70551870D01*
X87593081Y-70551865D01*
X87676744Y-70410398D01*
X87722598Y-70252569D01*
X87725500Y-70215694D01*
X87725500Y-69784306D01*
X87722598Y-69747431D01*
X87717912Y-69731303D01*
X87682259Y-69608584D01*
X87676744Y-69589602D01*
X87593081Y-69448135D01*
X87593078Y-69448132D01*
X87588298Y-69441969D01*
X87590750Y-69440066D01*
X87564155Y-69391421D01*
X87569104Y-69321726D01*
X87578939Y-69301270D01*
X87586805Y-69288140D01*
X87593081Y-69281865D01*
X87676744Y-69140398D01*
X87678080Y-69135798D01*
X87684629Y-69124868D01*
X87691100Y-69118894D01*
X87703316Y-69100917D01*
X87705519Y-69098716D01*
X87705519Y-69098714D01*
X87722956Y-69081278D01*
X87722957Y-69081275D01*
X88006520Y-68797715D01*
X88085577Y-68660783D01*
X88126501Y-68508056D01*
X88126501Y-68349941D01*
X88126501Y-68342346D01*
X88126500Y-68342328D01*
X88126500Y-56510445D01*
X88126500Y-56510443D01*
X88085577Y-56357716D01*
X88085573Y-56357709D01*
X88006524Y-56220790D01*
X88006521Y-56220786D01*
X88006520Y-56220784D01*
X87894716Y-56108980D01*
X87894715Y-56108979D01*
X87890385Y-56104649D01*
X87890374Y-56104639D01*
X87322916Y-55537181D01*
X87312303Y-55517744D01*
X87297803Y-55501011D01*
X87295886Y-55487679D01*
X87289431Y-55475858D01*
X87291010Y-55453771D01*
X87287859Y-55431853D01*
X87293454Y-55419601D01*
X87294415Y-55406166D01*
X87307685Y-55388439D01*
X87316884Y-55368297D01*
X87328215Y-55361014D01*
X87336287Y-55350233D01*
X87357032Y-55342495D01*
X87375662Y-55330523D01*
X87397580Y-55327371D01*
X87401751Y-55325816D01*
X87410597Y-55325500D01*
X87525638Y-55325500D01*
X87592677Y-55345185D01*
G37*
%TD.AperFunction*%
%TA.AperFunction,Conductor*%
G36*
X86535903Y-34009144D02*
G01*
X86565889Y-34015667D01*
X86569120Y-34018898D01*
X86573503Y-34020185D01*
X86593595Y-34043372D01*
X86615295Y-34065072D01*
X86616266Y-34069536D01*
X86619258Y-34072989D01*
X86623625Y-34103362D01*
X86630148Y-34133344D01*
X86628551Y-34137624D01*
X86629202Y-34142147D01*
X86616453Y-34170063D01*
X86605732Y-34198809D01*
X86601302Y-34203238D01*
X86600177Y-34205703D01*
X86580776Y-34223766D01*
X86542452Y-34252455D01*
X86456206Y-34367664D01*
X86456202Y-34367671D01*
X86405908Y-34502517D01*
X86401608Y-34542516D01*
X86399501Y-34562123D01*
X86399500Y-34562135D01*
X86399500Y-36357870D01*
X86399501Y-36357876D01*
X86405908Y-36417483D01*
X86456202Y-36552328D01*
X86456206Y-36552335D01*
X86542452Y-36667544D01*
X86542455Y-36667547D01*
X86657664Y-36753793D01*
X86657671Y-36753797D01*
X86702618Y-36770561D01*
X86792517Y-36804091D01*
X86852127Y-36810500D01*
X86862685Y-36810499D01*
X86929723Y-36830179D01*
X86950372Y-36846818D01*
X87620591Y-37517037D01*
X87557007Y-37534075D01*
X87442993Y-37599901D01*
X87349901Y-37692993D01*
X87284075Y-37807007D01*
X87267037Y-37870591D01*
X86634728Y-37238282D01*
X86634727Y-37238282D01*
X86595380Y-37292439D01*
X86498904Y-37481782D01*
X86433242Y-37683869D01*
X86433242Y-37683872D01*
X86400000Y-37893753D01*
X86400000Y-38106246D01*
X86433242Y-38316127D01*
X86433242Y-38316130D01*
X86498904Y-38518217D01*
X86595375Y-38707550D01*
X86634728Y-38761716D01*
X87267037Y-38129408D01*
X87284075Y-38192993D01*
X87349901Y-38307007D01*
X87442993Y-38400099D01*
X87557007Y-38465925D01*
X87620589Y-38482962D01*
X86988282Y-39115269D01*
X86988282Y-39115270D01*
X87042452Y-39154626D01*
X87042451Y-39154626D01*
X87051495Y-39159234D01*
X87102292Y-39207208D01*
X87119087Y-39275029D01*
X87096550Y-39341164D01*
X87051499Y-39380202D01*
X87042182Y-39384949D01*
X86870213Y-39509890D01*
X86719890Y-39660213D01*
X86594951Y-39832179D01*
X86498444Y-40021585D01*
X86432753Y-40223760D01*
X86404461Y-40402392D01*
X86399500Y-40433713D01*
X86399500Y-40646287D01*
X86432754Y-40856243D01*
X86481122Y-41005105D01*
X86498444Y-41058414D01*
X86594951Y-41247820D01*
X86719890Y-41419786D01*
X86870213Y-41570109D01*
X87042184Y-41695051D01*
X87042184Y-41695052D01*
X87081793Y-41715233D01*
X87132590Y-41763206D01*
X87149500Y-41825718D01*
X87149500Y-43319699D01*
X87129815Y-43386738D01*
X87077011Y-43432493D01*
X87064507Y-43437403D01*
X87031962Y-43448188D01*
X86980668Y-43465185D01*
X86980663Y-43465187D01*
X86831342Y-43557289D01*
X86707289Y-43681342D01*
X86615187Y-43830663D01*
X86615186Y-43830666D01*
X86560001Y-43997203D01*
X86560001Y-43997204D01*
X86560000Y-43997204D01*
X86549500Y-44099983D01*
X86549500Y-44799901D01*
X86529815Y-44866940D01*
X86513181Y-44887582D01*
X86078466Y-45322298D01*
X85513069Y-45887696D01*
X85184084Y-46216681D01*
X85122761Y-46250166D01*
X85096403Y-46253000D01*
X83954835Y-46253000D01*
X83887796Y-46233315D01*
X83854517Y-46201886D01*
X83769672Y-46085107D01*
X83638393Y-45953828D01*
X83488193Y-45844701D01*
X83322771Y-45760415D01*
X83146200Y-45703043D01*
X83146197Y-45703042D01*
X83141567Y-45701538D01*
X83142277Y-45699352D01*
X83089914Y-45669297D01*
X83057740Y-45607276D01*
X83064205Y-45537706D01*
X83107256Y-45482676D01*
X83142004Y-45466807D01*
X83141567Y-45465462D01*
X83146197Y-45463957D01*
X83146200Y-45463957D01*
X83322771Y-45406585D01*
X83488193Y-45322299D01*
X83638393Y-45213172D01*
X83769672Y-45081893D01*
X83878799Y-44931693D01*
X83963085Y-44766271D01*
X84020457Y-44589700D01*
X84033365Y-44508201D01*
X84049500Y-44406334D01*
X84049500Y-44220665D01*
X84020457Y-44037303D01*
X84020457Y-44037300D01*
X83963085Y-43860729D01*
X83878799Y-43695307D01*
X83769672Y-43545107D01*
X83638393Y-43413828D01*
X83488193Y-43304701D01*
X83322771Y-43220415D01*
X83146200Y-43163043D01*
X83146197Y-43163042D01*
X83141567Y-43161538D01*
X83142277Y-43159352D01*
X83089914Y-43129297D01*
X83057740Y-43067276D01*
X83064205Y-42997706D01*
X83107256Y-42942676D01*
X83142004Y-42926807D01*
X83141567Y-42925462D01*
X83146197Y-42923957D01*
X83146200Y-42923957D01*
X83322771Y-42866585D01*
X83488193Y-42782299D01*
X83638393Y-42673172D01*
X83769672Y-42541893D01*
X83878799Y-42391693D01*
X83963085Y-42226271D01*
X84020457Y-42049700D01*
X84033365Y-41968201D01*
X84049500Y-41866334D01*
X84049500Y-41680665D01*
X84020457Y-41497303D01*
X84020457Y-41497300D01*
X83963085Y-41320729D01*
X83878799Y-41155307D01*
X83769672Y-41005107D01*
X83638393Y-40873828D01*
X83488193Y-40764701D01*
X83322771Y-40680415D01*
X83146200Y-40623043D01*
X83146197Y-40623042D01*
X83141567Y-40621538D01*
X83142176Y-40619663D01*
X83088810Y-40589007D01*
X83056658Y-40526975D01*
X83063148Y-40457407D01*
X83106219Y-40402392D01*
X83141828Y-40386142D01*
X83141449Y-40384975D01*
X83322583Y-40326120D01*
X83487933Y-40241868D01*
X83487940Y-40241864D01*
X83509294Y-40226348D01*
X83509295Y-40226347D01*
X82938173Y-39655225D01*
X83034044Y-39629537D01*
X83130956Y-39573584D01*
X83210084Y-39494456D01*
X83266037Y-39397544D01*
X83291725Y-39301672D01*
X83862847Y-39872795D01*
X83862848Y-39872794D01*
X83878364Y-39851440D01*
X83878368Y-39851433D01*
X83962620Y-39686083D01*
X84019968Y-39509583D01*
X84049000Y-39326288D01*
X84049000Y-39140711D01*
X84019968Y-38957416D01*
X83962620Y-38780916D01*
X83878370Y-38615568D01*
X83862847Y-38594204D01*
X83291725Y-39165326D01*
X83266037Y-39069456D01*
X83210084Y-38972544D01*
X83130956Y-38893416D01*
X83034044Y-38837463D01*
X82938172Y-38811774D01*
X83509295Y-38240651D01*
X83487931Y-38225129D01*
X83322583Y-38140879D01*
X83141449Y-38082025D01*
X83142045Y-38080189D01*
X83118986Y-38066857D01*
X83088803Y-38049515D01*
X83088722Y-38049358D01*
X83088570Y-38049271D01*
X83072653Y-38018350D01*
X83056656Y-37987480D01*
X83056672Y-37987305D01*
X83056592Y-37987149D01*
X83059919Y-37952532D01*
X83063152Y-37917913D01*
X83063260Y-37917774D01*
X83063277Y-37917600D01*
X83084848Y-37890203D01*
X83106227Y-37862901D01*
X83106428Y-37862796D01*
X83106501Y-37862705D01*
X83107381Y-37862304D01*
X83137882Y-37846552D01*
X83144712Y-37844192D01*
X83146200Y-37843957D01*
X83322771Y-37786585D01*
X83488193Y-37702299D01*
X83638393Y-37593172D01*
X83769672Y-37461893D01*
X83878799Y-37311693D01*
X83963085Y-37146271D01*
X84020457Y-36969700D01*
X84037466Y-36862309D01*
X84049500Y-36786334D01*
X84049500Y-36600665D01*
X84020457Y-36417303D01*
X84020457Y-36417300D01*
X83963085Y-36240729D01*
X83878799Y-36075307D01*
X83769672Y-35925107D01*
X83638393Y-35793828D01*
X83488193Y-35684701D01*
X83322771Y-35600415D01*
X83146200Y-35543043D01*
X83146198Y-35543042D01*
X83146196Y-35543042D01*
X82962834Y-35514000D01*
X82962829Y-35514000D01*
X82777171Y-35514000D01*
X82777166Y-35514000D01*
X82593803Y-35543042D01*
X82417226Y-35600416D01*
X82251806Y-35684701D01*
X82166111Y-35746962D01*
X82101607Y-35793828D01*
X82101605Y-35793830D01*
X82101604Y-35793830D01*
X81970330Y-35925104D01*
X81970330Y-35925105D01*
X81970328Y-35925107D01*
X81923462Y-35989611D01*
X81861201Y-36075306D01*
X81776916Y-36240726D01*
X81719542Y-36417303D01*
X81690500Y-36600665D01*
X81690500Y-36786334D01*
X81719542Y-36969696D01*
X81719543Y-36969700D01*
X81776915Y-37146271D01*
X81861201Y-37311693D01*
X81970328Y-37461893D01*
X82101607Y-37593172D01*
X82251807Y-37702299D01*
X82417229Y-37786585D01*
X82593800Y-37843957D01*
X82593802Y-37843957D01*
X82598433Y-37845462D01*
X82597820Y-37847348D01*
X82651149Y-37877949D01*
X82683329Y-37939967D01*
X82676873Y-38009537D01*
X82633828Y-38064573D01*
X82598175Y-38080870D01*
X82598551Y-38082025D01*
X82417416Y-38140879D01*
X82252065Y-38225131D01*
X82230704Y-38240650D01*
X82230704Y-38240651D01*
X82801828Y-38811774D01*
X82705956Y-38837463D01*
X82609044Y-38893416D01*
X82529916Y-38972544D01*
X82473963Y-39069456D01*
X82448274Y-39165327D01*
X81877150Y-38594204D01*
X81861631Y-38615565D01*
X81777379Y-38780916D01*
X81720031Y-38957416D01*
X81691000Y-39140711D01*
X81691000Y-39326288D01*
X81720031Y-39509583D01*
X81777379Y-39686083D01*
X81861629Y-39851431D01*
X81877151Y-39872794D01*
X81877151Y-39872795D01*
X82448274Y-39301671D01*
X82473963Y-39397544D01*
X82529916Y-39494456D01*
X82609044Y-39573584D01*
X82705956Y-39629537D01*
X82801827Y-39655225D01*
X82230704Y-40226347D01*
X82230704Y-40226348D01*
X82252068Y-40241870D01*
X82417416Y-40326120D01*
X82598551Y-40384975D01*
X82597927Y-40386893D01*
X82651152Y-40417438D01*
X82683330Y-40479456D01*
X82676871Y-40549027D01*
X82633824Y-40604061D01*
X82598064Y-40620404D01*
X82598433Y-40621538D01*
X82593802Y-40623042D01*
X82593800Y-40623043D01*
X82490502Y-40656607D01*
X82417226Y-40680416D01*
X82251806Y-40764701D01*
X82166111Y-40826962D01*
X82101607Y-40873828D01*
X82101605Y-40873830D01*
X82101604Y-40873830D01*
X81970330Y-41005104D01*
X81970330Y-41005105D01*
X81970328Y-41005107D01*
X81931600Y-41058412D01*
X81861201Y-41155306D01*
X81776916Y-41320726D01*
X81719542Y-41497303D01*
X81690500Y-41680665D01*
X81690500Y-41866334D01*
X81719542Y-42049696D01*
X81719543Y-42049700D01*
X81776915Y-42226271D01*
X81861201Y-42391693D01*
X81970328Y-42541893D01*
X82101607Y-42673172D01*
X82251807Y-42782299D01*
X82417229Y-42866585D01*
X82593800Y-42923957D01*
X82593802Y-42923957D01*
X82598433Y-42925462D01*
X82597726Y-42927635D01*
X82650129Y-42957748D01*
X82682271Y-43019786D01*
X82675771Y-43089352D01*
X82632692Y-43144361D01*
X82597999Y-43160204D01*
X82598433Y-43161538D01*
X82593802Y-43163042D01*
X82593800Y-43163043D01*
X82490502Y-43196607D01*
X82417226Y-43220416D01*
X82251806Y-43304701D01*
X82166111Y-43366962D01*
X82101607Y-43413828D01*
X82101605Y-43413830D01*
X82101604Y-43413830D01*
X81970330Y-43545104D01*
X81970330Y-43545105D01*
X81970328Y-43545107D01*
X81923462Y-43609611D01*
X81861201Y-43695306D01*
X81776916Y-43860726D01*
X81719542Y-44037303D01*
X81690500Y-44220665D01*
X81690500Y-44406334D01*
X81719542Y-44589696D01*
X81719543Y-44589700D01*
X81776915Y-44766271D01*
X81861201Y-44931693D01*
X81970328Y-45081893D01*
X82101607Y-45213172D01*
X82251807Y-45322299D01*
X82417229Y-45406585D01*
X82593800Y-45463957D01*
X82593802Y-45463957D01*
X82598433Y-45465462D01*
X82597726Y-45467635D01*
X82650129Y-45497748D01*
X82682271Y-45559786D01*
X82675771Y-45629352D01*
X82632692Y-45684361D01*
X82597999Y-45700204D01*
X82598433Y-45701538D01*
X82593802Y-45703042D01*
X82593800Y-45703043D01*
X82490502Y-45736607D01*
X82417226Y-45760416D01*
X82251806Y-45844701D01*
X82166111Y-45906962D01*
X82101607Y-45953828D01*
X82101605Y-45953830D01*
X82101604Y-45953830D01*
X81970330Y-46085104D01*
X81970330Y-46085105D01*
X81970328Y-46085107D01*
X81938131Y-46129422D01*
X81861201Y-46235306D01*
X81776916Y-46400726D01*
X81719542Y-46577303D01*
X81690500Y-46760665D01*
X81690500Y-46946334D01*
X81719485Y-47129334D01*
X81719543Y-47129700D01*
X81776915Y-47306271D01*
X81861201Y-47471693D01*
X81970328Y-47621893D01*
X82101607Y-47753172D01*
X82251807Y-47862299D01*
X82417229Y-47946585D01*
X82593800Y-48003957D01*
X82593802Y-48003957D01*
X82598433Y-48005462D01*
X82597726Y-48007635D01*
X82650129Y-48037748D01*
X82682271Y-48099786D01*
X82675771Y-48169352D01*
X82632692Y-48224361D01*
X82597999Y-48240204D01*
X82598433Y-48241538D01*
X82593802Y-48243042D01*
X82593800Y-48243043D01*
X82490502Y-48276607D01*
X82417226Y-48300416D01*
X82251806Y-48384701D01*
X82166111Y-48446962D01*
X82101607Y-48493828D01*
X82101605Y-48493830D01*
X82101604Y-48493830D01*
X81970330Y-48625104D01*
X81970330Y-48625105D01*
X81970328Y-48625107D01*
X81923462Y-48689611D01*
X81861201Y-48775306D01*
X81776916Y-48940726D01*
X81719542Y-49117303D01*
X81690500Y-49300665D01*
X81690500Y-49486334D01*
X81713080Y-49628896D01*
X81719543Y-49669700D01*
X81776915Y-49846271D01*
X81861201Y-50011693D01*
X81970328Y-50161893D01*
X82101607Y-50293172D01*
X82251807Y-50402299D01*
X82417229Y-50486585D01*
X82593800Y-50543957D01*
X82593802Y-50543957D01*
X82598433Y-50545462D01*
X82597726Y-50547635D01*
X82650129Y-50577748D01*
X82682271Y-50639786D01*
X82675771Y-50709352D01*
X82632692Y-50764361D01*
X82597999Y-50780204D01*
X82598433Y-50781538D01*
X82593802Y-50783042D01*
X82593800Y-50783043D01*
X82490502Y-50816607D01*
X82417226Y-50840416D01*
X82251806Y-50924701D01*
X82166111Y-50986962D01*
X82101607Y-51033828D01*
X82101605Y-51033830D01*
X82101604Y-51033830D01*
X81970330Y-51165104D01*
X81970330Y-51165105D01*
X81970328Y-51165107D01*
X81955875Y-51185000D01*
X81861201Y-51315306D01*
X81776916Y-51480726D01*
X81719542Y-51657303D01*
X81690500Y-51840665D01*
X81690500Y-52026334D01*
X81713080Y-52168896D01*
X81719543Y-52209700D01*
X81776915Y-52386271D01*
X81861201Y-52551693D01*
X81970328Y-52701893D01*
X82101607Y-52833172D01*
X82251807Y-52942299D01*
X82417229Y-53026585D01*
X82593800Y-53083957D01*
X82662564Y-53094848D01*
X82777166Y-53113000D01*
X82777171Y-53113000D01*
X82962833Y-53113000D01*
X83030892Y-53102219D01*
X83105398Y-53090419D01*
X83174690Y-53099373D01*
X83212476Y-53125211D01*
X86889181Y-56801916D01*
X86922666Y-56863239D01*
X86925500Y-56889597D01*
X86925500Y-63995500D01*
X86905815Y-64062539D01*
X86853011Y-64108294D01*
X86801500Y-64119500D01*
X86350097Y-64119500D01*
X86283058Y-64099815D01*
X86262416Y-64083181D01*
X68812744Y-46633509D01*
X68783569Y-46581413D01*
X68781963Y-46581935D01*
X68723083Y-46400724D01*
X68638798Y-46235306D01*
X68529672Y-46085107D01*
X68398393Y-45953828D01*
X68248193Y-45844701D01*
X68082771Y-45760415D01*
X67906200Y-45703043D01*
X67906197Y-45703042D01*
X67901567Y-45701538D01*
X67902277Y-45699352D01*
X67849914Y-45669297D01*
X67817740Y-45607276D01*
X67824205Y-45537706D01*
X67867256Y-45482676D01*
X67902004Y-45466807D01*
X67901567Y-45465462D01*
X67906197Y-45463957D01*
X67906200Y-45463957D01*
X68082771Y-45406585D01*
X68248193Y-45322299D01*
X68398393Y-45213172D01*
X68529672Y-45081893D01*
X68638799Y-44931693D01*
X68723085Y-44766271D01*
X68780457Y-44589700D01*
X68793365Y-44508201D01*
X68809500Y-44406334D01*
X68809500Y-44220665D01*
X68780457Y-44037303D01*
X68780457Y-44037300D01*
X68723085Y-43860729D01*
X68638799Y-43695307D01*
X68529672Y-43545107D01*
X68398393Y-43413828D01*
X68248193Y-43304701D01*
X68082771Y-43220415D01*
X67906200Y-43163043D01*
X67906197Y-43163042D01*
X67901567Y-43161538D01*
X67902277Y-43159352D01*
X67849914Y-43129297D01*
X67817740Y-43067276D01*
X67824205Y-42997706D01*
X67867256Y-42942676D01*
X67902004Y-42926807D01*
X67901567Y-42925462D01*
X67906197Y-42923957D01*
X67906200Y-42923957D01*
X68082771Y-42866585D01*
X68248193Y-42782299D01*
X68398393Y-42673172D01*
X68529672Y-42541893D01*
X68638799Y-42391693D01*
X68723085Y-42226271D01*
X68780457Y-42049700D01*
X68793365Y-41968201D01*
X68809500Y-41866334D01*
X68809500Y-41680665D01*
X68780457Y-41497303D01*
X68780457Y-41497300D01*
X68723085Y-41320729D01*
X68638799Y-41155307D01*
X68529672Y-41005107D01*
X68398393Y-40873828D01*
X68248193Y-40764701D01*
X68082771Y-40680415D01*
X67906200Y-40623043D01*
X67906197Y-40623042D01*
X67901567Y-40621538D01*
X67902277Y-40619352D01*
X67849914Y-40589297D01*
X67817740Y-40527276D01*
X67824205Y-40457706D01*
X67867256Y-40402676D01*
X67902004Y-40386807D01*
X67901567Y-40385462D01*
X67906197Y-40383957D01*
X67906200Y-40383957D01*
X68082771Y-40326585D01*
X68248193Y-40242299D01*
X68398393Y-40133172D01*
X68529672Y-40001893D01*
X68638799Y-39851693D01*
X68723085Y-39686271D01*
X68780457Y-39509700D01*
X68800815Y-39381164D01*
X68809500Y-39326334D01*
X68809500Y-39140665D01*
X68780457Y-38957303D01*
X68780457Y-38957300D01*
X68723085Y-38780729D01*
X68638799Y-38615307D01*
X68529672Y-38465107D01*
X68398393Y-38333828D01*
X68248193Y-38224701D01*
X68082771Y-38140415D01*
X68004335Y-38114929D01*
X67946660Y-38075492D01*
X67919462Y-38011134D01*
X67931377Y-37942287D01*
X67978621Y-37890812D01*
X68042654Y-37872999D01*
X68356871Y-37872999D01*
X68356872Y-37872999D01*
X68416483Y-37866591D01*
X68551331Y-37816296D01*
X68666546Y-37730046D01*
X68752796Y-37614831D01*
X68803091Y-37479983D01*
X68809500Y-37420373D01*
X68809499Y-35966628D01*
X68803091Y-35907017D01*
X68760874Y-35793828D01*
X68752797Y-35772171D01*
X68752793Y-35772164D01*
X68666547Y-35656955D01*
X68666544Y-35656952D01*
X68551335Y-35570706D01*
X68551328Y-35570702D01*
X68416482Y-35520408D01*
X68416483Y-35520408D01*
X68356883Y-35514001D01*
X68356881Y-35514000D01*
X68356873Y-35514000D01*
X68356864Y-35514000D01*
X66903129Y-35514000D01*
X66903123Y-35514001D01*
X66843516Y-35520408D01*
X66708671Y-35570702D01*
X66708666Y-35570705D01*
X66698808Y-35578085D01*
X66633343Y-35602500D01*
X66565071Y-35587647D01*
X66515666Y-35538240D01*
X66500500Y-35478816D01*
X66500500Y-34124500D01*
X66520185Y-34057461D01*
X66572989Y-34011706D01*
X66624500Y-34000500D01*
X86506464Y-34000500D01*
X86535903Y-34009144D01*
G37*
%TD.AperFunction*%
%TA.AperFunction,Conductor*%
G36*
X91120102Y-45667805D02*
G01*
X91176035Y-45709677D01*
X91200452Y-45775141D01*
X91194474Y-45822990D01*
X91150001Y-45957200D01*
X91150000Y-45957204D01*
X91139500Y-46059983D01*
X91139500Y-46860001D01*
X91139501Y-46860019D01*
X91150000Y-46962796D01*
X91150001Y-46962799D01*
X91163256Y-47002799D01*
X91205186Y-47129334D01*
X91297288Y-47278656D01*
X91421344Y-47402712D01*
X91570666Y-47494814D01*
X91737203Y-47549999D01*
X91839991Y-47560500D01*
X92115638Y-47560499D01*
X92182677Y-47580183D01*
X92203319Y-47596818D01*
X92764181Y-48157680D01*
X92797666Y-48219003D01*
X92800500Y-48245361D01*
X92800500Y-49961000D01*
X92780815Y-50028039D01*
X92728011Y-50073794D01*
X92676500Y-50085000D01*
X92500000Y-50085000D01*
X92500000Y-51001988D01*
X92442993Y-50969075D01*
X92315826Y-50935000D01*
X92184174Y-50935000D01*
X92057007Y-50969075D01*
X92000000Y-51001988D01*
X92000000Y-50085000D01*
X91352155Y-50085000D01*
X91292627Y-50091401D01*
X91292620Y-50091403D01*
X91157913Y-50141645D01*
X91157906Y-50141649D01*
X91042812Y-50227809D01*
X91042809Y-50227812D01*
X90956649Y-50342906D01*
X90956645Y-50342913D01*
X90906403Y-50477620D01*
X90906401Y-50477627D01*
X90900000Y-50537155D01*
X90900000Y-51185000D01*
X91816988Y-51185000D01*
X91784075Y-51242007D01*
X91750000Y-51369174D01*
X91750000Y-51500826D01*
X91784075Y-51627993D01*
X91816988Y-51685000D01*
X90900000Y-51685000D01*
X90900000Y-52332844D01*
X90906401Y-52392372D01*
X90906403Y-52392379D01*
X90956645Y-52527086D01*
X90956649Y-52527093D01*
X91042809Y-52642187D01*
X91042812Y-52642190D01*
X91157906Y-52728350D01*
X91157913Y-52728354D01*
X91289470Y-52777422D01*
X91345404Y-52819293D01*
X91369821Y-52884758D01*
X91354969Y-52953031D01*
X91333819Y-52981285D01*
X91219889Y-53095215D01*
X91094951Y-53267179D01*
X90998444Y-53456585D01*
X90932753Y-53658760D01*
X90899500Y-53868713D01*
X90899500Y-54000637D01*
X90879815Y-54067676D01*
X90863181Y-54088318D01*
X89962680Y-54988819D01*
X89901357Y-55022304D01*
X89831665Y-55017320D01*
X89787318Y-54988819D01*
X88886819Y-54088319D01*
X88853334Y-54026996D01*
X88850500Y-54000638D01*
X88850500Y-53868713D01*
X88841957Y-53814773D01*
X88817246Y-53658757D01*
X88751557Y-53456588D01*
X88655051Y-53267184D01*
X88655049Y-53267181D01*
X88655048Y-53267179D01*
X88530109Y-53095213D01*
X88416181Y-52981285D01*
X88382696Y-52919962D01*
X88387680Y-52850270D01*
X88429552Y-52794337D01*
X88460529Y-52777422D01*
X88592086Y-52728354D01*
X88592093Y-52728350D01*
X88707187Y-52642190D01*
X88707190Y-52642187D01*
X88793350Y-52527093D01*
X88793354Y-52527086D01*
X88843596Y-52392379D01*
X88843598Y-52392372D01*
X88849999Y-52332844D01*
X88850000Y-52332827D01*
X88850000Y-51685000D01*
X87933012Y-51685000D01*
X87965925Y-51627993D01*
X88000000Y-51500826D01*
X88000000Y-51369174D01*
X87965925Y-51242007D01*
X87933012Y-51185000D01*
X88850000Y-51185000D01*
X88850000Y-50537172D01*
X88849999Y-50537155D01*
X88843598Y-50477627D01*
X88843596Y-50477620D01*
X88793354Y-50342913D01*
X88793350Y-50342906D01*
X88707190Y-50227812D01*
X88707187Y-50227809D01*
X88592093Y-50141649D01*
X88592086Y-50141645D01*
X88457379Y-50091403D01*
X88457372Y-50091401D01*
X88397844Y-50085000D01*
X87750000Y-50085000D01*
X87750000Y-51001988D01*
X87692993Y-50969075D01*
X87565826Y-50935000D01*
X87434174Y-50935000D01*
X87307007Y-50969075D01*
X87250000Y-51001988D01*
X87250000Y-50085000D01*
X86899759Y-50085000D01*
X86878513Y-50078761D01*
X86856427Y-50077182D01*
X86845643Y-50069109D01*
X86832720Y-50065315D01*
X86818221Y-50048582D01*
X86800493Y-50035312D01*
X86795784Y-50022689D01*
X86786965Y-50012511D01*
X86783813Y-49990595D01*
X86776075Y-49969848D01*
X86778938Y-49956685D01*
X86777021Y-49943353D01*
X86786219Y-49923210D01*
X86790926Y-49901575D01*
X86804196Y-49883846D01*
X86806046Y-49879797D01*
X86812076Y-49873320D01*
X86923180Y-49762216D01*
X86923181Y-49762213D01*
X90989089Y-45696304D01*
X91050410Y-45662821D01*
X91120102Y-45667805D01*
G37*
%TD.AperFunction*%
%TA.AperFunction,Conductor*%
G36*
X86299625Y-50013685D02*
G01*
X86345380Y-50066489D01*
X86355324Y-50135647D01*
X86326299Y-50199203D01*
X86306897Y-50217267D01*
X86292808Y-50227813D01*
X86206649Y-50342906D01*
X86206645Y-50342913D01*
X86156403Y-50477620D01*
X86156401Y-50477627D01*
X86150000Y-50537155D01*
X86150000Y-51185000D01*
X87066988Y-51185000D01*
X87034075Y-51242007D01*
X87000000Y-51369174D01*
X87000000Y-51500826D01*
X87034075Y-51627993D01*
X87066988Y-51685000D01*
X86150000Y-51685000D01*
X86150000Y-52332844D01*
X86156401Y-52392372D01*
X86156403Y-52392379D01*
X86206645Y-52527086D01*
X86206649Y-52527093D01*
X86292809Y-52642187D01*
X86292812Y-52642190D01*
X86407906Y-52728350D01*
X86407913Y-52728354D01*
X86539470Y-52777422D01*
X86595404Y-52819293D01*
X86619821Y-52884758D01*
X86604969Y-52953031D01*
X86583819Y-52981285D01*
X86469889Y-53095215D01*
X86344951Y-53267179D01*
X86248444Y-53456585D01*
X86182753Y-53658760D01*
X86149500Y-53868713D01*
X86149500Y-54064403D01*
X86129815Y-54131442D01*
X86077011Y-54177197D01*
X86007853Y-54187141D01*
X85944297Y-54158116D01*
X85937819Y-54152084D01*
X84061711Y-52275976D01*
X84028226Y-52214653D01*
X84026919Y-52168899D01*
X84038719Y-52094392D01*
X84049500Y-52026333D01*
X84049500Y-51840665D01*
X84020457Y-51657303D01*
X84020457Y-51657300D01*
X83963085Y-51480729D01*
X83878799Y-51315307D01*
X83769672Y-51165107D01*
X83638393Y-51033828D01*
X83488193Y-50924701D01*
X83322771Y-50840415D01*
X83146200Y-50783043D01*
X83146197Y-50783042D01*
X83141567Y-50781538D01*
X83142277Y-50779352D01*
X83089914Y-50749297D01*
X83057740Y-50687276D01*
X83064205Y-50617706D01*
X83107256Y-50562676D01*
X83142004Y-50546807D01*
X83141567Y-50545462D01*
X83146197Y-50543957D01*
X83146200Y-50543957D01*
X83322771Y-50486585D01*
X83488193Y-50402299D01*
X83638393Y-50293172D01*
X83769672Y-50161893D01*
X83854517Y-50045113D01*
X83909847Y-50002449D01*
X83954835Y-49994000D01*
X86232586Y-49994000D01*
X86299625Y-50013685D01*
G37*
%TD.AperFunction*%
%TA.AperFunction,Conductor*%
G36*
X91126936Y-34020185D02*
G01*
X91172691Y-34072989D01*
X91182635Y-34142147D01*
X91153610Y-34205703D01*
X91134208Y-34223766D01*
X91042455Y-34292452D01*
X91042452Y-34292455D01*
X90956206Y-34407664D01*
X90956202Y-34407671D01*
X90905908Y-34542517D01*
X90899501Y-34602116D01*
X90899501Y-34602123D01*
X90899500Y-34602135D01*
X90899500Y-36397870D01*
X90899501Y-36397876D01*
X90905908Y-36457483D01*
X90956202Y-36592328D01*
X90956206Y-36592335D01*
X91042452Y-36707544D01*
X91042455Y-36707547D01*
X91157664Y-36793793D01*
X91157671Y-36793797D01*
X91202452Y-36810499D01*
X91292517Y-36844091D01*
X91352127Y-36850500D01*
X91362685Y-36850499D01*
X91429723Y-36870179D01*
X91450372Y-36886818D01*
X92120591Y-37557037D01*
X92057007Y-37574075D01*
X91942993Y-37639901D01*
X91849901Y-37732993D01*
X91784075Y-37847007D01*
X91767037Y-37910591D01*
X91134728Y-37278282D01*
X91134727Y-37278282D01*
X91095380Y-37332439D01*
X90998904Y-37521782D01*
X90933242Y-37723869D01*
X90933242Y-37723872D01*
X90900000Y-37933753D01*
X90900000Y-38146246D01*
X90933242Y-38356127D01*
X90933242Y-38356130D01*
X90998904Y-38558217D01*
X91095375Y-38747550D01*
X91134728Y-38801716D01*
X91767037Y-38169408D01*
X91784075Y-38232993D01*
X91849901Y-38347007D01*
X91942993Y-38440099D01*
X92057007Y-38505925D01*
X92120589Y-38522962D01*
X91488282Y-39155269D01*
X91488282Y-39155270D01*
X91542452Y-39194626D01*
X91542451Y-39194626D01*
X91551495Y-39199234D01*
X91602292Y-39247208D01*
X91619087Y-39315029D01*
X91596550Y-39381164D01*
X91551499Y-39420202D01*
X91542182Y-39424949D01*
X91370213Y-39549890D01*
X91219890Y-39700213D01*
X91094951Y-39872179D01*
X90998444Y-40061585D01*
X90932753Y-40263760D01*
X90899500Y-40473713D01*
X90899500Y-40686286D01*
X90929203Y-40873828D01*
X90932754Y-40896243D01*
X90968126Y-41005107D01*
X90998444Y-41098414D01*
X91094951Y-41287820D01*
X91219890Y-41459786D01*
X91370213Y-41610109D01*
X91542184Y-41735051D01*
X91542184Y-41735052D01*
X91581793Y-41755233D01*
X91632590Y-41803206D01*
X91649500Y-41865718D01*
X91649500Y-43309522D01*
X91629815Y-43376561D01*
X91577011Y-43422316D01*
X91575804Y-43422789D01*
X91570669Y-43425184D01*
X91421342Y-43517289D01*
X91297289Y-43641342D01*
X91205184Y-43790668D01*
X91189438Y-43838186D01*
X91149664Y-43895630D01*
X91133733Y-43906567D01*
X91007447Y-43979477D01*
X91007442Y-43979481D01*
X90313181Y-44673743D01*
X90251858Y-44707228D01*
X90182166Y-44702244D01*
X90126233Y-44660372D01*
X90101816Y-44594908D01*
X90101500Y-44586062D01*
X90101500Y-36822309D01*
X90099151Y-36810500D01*
X90097876Y-36804091D01*
X90066895Y-36648334D01*
X89999013Y-36484453D01*
X89999012Y-36484452D01*
X89999009Y-36484446D01*
X89900464Y-36336964D01*
X89900461Y-36336960D01*
X89136818Y-35573317D01*
X89103333Y-35511994D01*
X89100499Y-35485636D01*
X89100499Y-34562129D01*
X89100498Y-34562123D01*
X89100497Y-34562116D01*
X89094091Y-34502517D01*
X89043796Y-34367669D01*
X89043795Y-34367668D01*
X89043793Y-34367664D01*
X88957547Y-34252455D01*
X88919224Y-34223766D01*
X88877354Y-34167832D01*
X88872370Y-34098140D01*
X88905856Y-34036818D01*
X88967180Y-34003333D01*
X88993536Y-34000500D01*
X91059897Y-34000500D01*
X91126936Y-34020185D01*
G37*
%TD.AperFunction*%
%TD*%
M02*
