M48
; DRILL file {KiCad 9.0.7} date 2026-04-08T17:29:35+0200
; FORMAT={-:-/ absolute / metric / decimal}
; #@! TF.CreationDate,2026-04-08T17:29:35+02:00
; #@! TF.GenerationSoftware,Kicad,Pcbnew,9.0.7
; #@! TF.FileFunction,Plated,1,2,PTH
FMAT,2
METRIC
; #@! TA.AperFunction,Plated,PTH,ViaDrill
T1C0.300
; #@! TA.AperFunction,Plated,PTH,ComponentDrill
T2C0.850
; #@! TA.AperFunction,Plated,PTH,ComponentDrill
T3C1.000
; #@! TA.AperFunction,Plated,PTH,ComponentDrill
T4C3.200
%
G90
G05
T1
X68.525Y-66.095
X68.525Y-67.365
X68.525Y-68.635
X72.5Y-61.75
X73.75Y-61.75
X81.0Y-73.25
X81.0Y-76.25
T2
X67.63Y-36.694
X67.63Y-39.233
X67.63Y-41.773
X67.63Y-44.313
X67.63Y-46.853
X67.63Y-49.393
X67.63Y-51.933
X82.87Y-36.694
X82.87Y-39.233
X82.87Y-41.773
X82.87Y-44.313
X82.87Y-46.853
X82.87Y-49.393
X82.87Y-51.933
T3
X78.25Y-64.4
X78.25Y-66.94
X78.25Y-69.48
X78.25Y-72.02
X78.25Y-74.56
X87.5Y-51.435
X87.5Y-53.975
X87.75Y-35.46
X87.75Y-38.0
X87.75Y-40.54
X92.25Y-35.5
X92.25Y-38.04
X92.25Y-40.58
X92.25Y-51.435
X92.25Y-53.975
X96.0Y-64.4
X96.0Y-66.94
X96.0Y-69.48
X96.0Y-72.02
X96.0Y-74.56
T4
X70.0Y-59.25
X96.0Y-58.25
M30
