%TF.GenerationSoftware,KiCad,Pcbnew,9.0.7*%
%TF.CreationDate,2026-04-08T17:29:30+02:00*%
%TF.ProjectId,HotClock,486f7443-6c6f-4636-9b2e-6b696361645f,rev?*%
%TF.SameCoordinates,Original*%
%TF.FileFunction,Legend,Top*%
%TF.FilePolarity,Positive*%
%FSLAX46Y46*%
G04 Gerber Fmt 4.6, Leading zero omitted, Abs format (unit mm)*
G04 Created by KiCad (PCBNEW 9.0.7) date 2026-04-08 17:29:30*
%MOMM*%
%LPD*%
G01*
G04 APERTURE LIST*
%ADD10C,0.100000*%
%ADD11C,0.625000*%
%ADD12C,0.150000*%
%ADD13C,0.120000*%
%ADD14C,0.127000*%
%ADD15C,0.200000*%
G04 APERTURE END LIST*
D10*
X89053884Y-53991466D02*
X89815789Y-53991466D01*
X89434836Y-54372419D02*
X89434836Y-53610514D01*
D11*
X74986547Y-49148339D02*
X74986547Y-47481673D01*
X77605595Y-46767387D02*
X77605595Y-49148339D01*
X77605595Y-49148339D02*
X72605595Y-49148339D01*
X72605595Y-49148339D02*
X72605595Y-46767387D01*
X77367500Y-44862625D02*
X77605595Y-44148339D01*
X77605595Y-44148339D02*
X77605595Y-42957863D01*
X77605595Y-42957863D02*
X77367500Y-42481672D01*
X77367500Y-42481672D02*
X77129404Y-42243577D01*
X77129404Y-42243577D02*
X76653214Y-42005482D01*
X76653214Y-42005482D02*
X76177023Y-42005482D01*
X76177023Y-42005482D02*
X75700833Y-42243577D01*
X75700833Y-42243577D02*
X75462738Y-42481672D01*
X75462738Y-42481672D02*
X75224642Y-42957863D01*
X75224642Y-42957863D02*
X74986547Y-43910244D01*
X74986547Y-43910244D02*
X74748452Y-44386434D01*
X74748452Y-44386434D02*
X74510357Y-44624529D01*
X74510357Y-44624529D02*
X74034166Y-44862625D01*
X74034166Y-44862625D02*
X73557976Y-44862625D01*
X73557976Y-44862625D02*
X73081785Y-44624529D01*
X73081785Y-44624529D02*
X72843690Y-44386434D01*
X72843690Y-44386434D02*
X72605595Y-43910244D01*
X72605595Y-43910244D02*
X72605595Y-42719767D01*
X72605595Y-42719767D02*
X72843690Y-42005482D01*
X77605595Y-39862624D02*
X72605595Y-39862624D01*
X72605595Y-39862624D02*
X72605595Y-37957862D01*
X72605595Y-37957862D02*
X72843690Y-37481672D01*
X72843690Y-37481672D02*
X73081785Y-37243577D01*
X73081785Y-37243577D02*
X73557976Y-37005481D01*
X73557976Y-37005481D02*
X74272261Y-37005481D01*
X74272261Y-37005481D02*
X74748452Y-37243577D01*
X74748452Y-37243577D02*
X74986547Y-37481672D01*
X74986547Y-37481672D02*
X75224642Y-37957862D01*
X75224642Y-37957862D02*
X75224642Y-39862624D01*
D10*
X93803884Y-53991466D02*
X94565789Y-53991466D01*
X94184836Y-54372419D02*
X94184836Y-53610514D01*
D12*
X89854819Y-46095238D02*
X89854819Y-46666666D01*
X89854819Y-46380952D02*
X88854819Y-46380952D01*
X88854819Y-46380952D02*
X88997676Y-46476190D01*
X88997676Y-46476190D02*
X89092914Y-46571428D01*
X89092914Y-46571428D02*
X89140533Y-46666666D01*
X88854819Y-45476190D02*
X88854819Y-45380952D01*
X88854819Y-45380952D02*
X88902438Y-45285714D01*
X88902438Y-45285714D02*
X88950057Y-45238095D01*
X88950057Y-45238095D02*
X89045295Y-45190476D01*
X89045295Y-45190476D02*
X89235771Y-45142857D01*
X89235771Y-45142857D02*
X89473866Y-45142857D01*
X89473866Y-45142857D02*
X89664342Y-45190476D01*
X89664342Y-45190476D02*
X89759580Y-45238095D01*
X89759580Y-45238095D02*
X89807200Y-45285714D01*
X89807200Y-45285714D02*
X89854819Y-45380952D01*
X89854819Y-45380952D02*
X89854819Y-45476190D01*
X89854819Y-45476190D02*
X89807200Y-45571428D01*
X89807200Y-45571428D02*
X89759580Y-45619047D01*
X89759580Y-45619047D02*
X89664342Y-45666666D01*
X89664342Y-45666666D02*
X89473866Y-45714285D01*
X89473866Y-45714285D02*
X89235771Y-45714285D01*
X89235771Y-45714285D02*
X89045295Y-45666666D01*
X89045295Y-45666666D02*
X88950057Y-45619047D01*
X88950057Y-45619047D02*
X88902438Y-45571428D01*
X88902438Y-45571428D02*
X88854819Y-45476190D01*
X89854819Y-44714285D02*
X88854819Y-44714285D01*
X89473866Y-44619047D02*
X89854819Y-44333333D01*
X89188152Y-44333333D02*
X89569104Y-44714285D01*
X87963095Y-62919819D02*
X87963095Y-63729342D01*
X87963095Y-63729342D02*
X88010714Y-63824580D01*
X88010714Y-63824580D02*
X88058333Y-63872200D01*
X88058333Y-63872200D02*
X88153571Y-63919819D01*
X88153571Y-63919819D02*
X88344047Y-63919819D01*
X88344047Y-63919819D02*
X88439285Y-63872200D01*
X88439285Y-63872200D02*
X88486904Y-63824580D01*
X88486904Y-63824580D02*
X88534523Y-63729342D01*
X88534523Y-63729342D02*
X88534523Y-62919819D01*
X88915476Y-62919819D02*
X89534523Y-62919819D01*
X89534523Y-62919819D02*
X89201190Y-63300771D01*
X89201190Y-63300771D02*
X89344047Y-63300771D01*
X89344047Y-63300771D02*
X89439285Y-63348390D01*
X89439285Y-63348390D02*
X89486904Y-63396009D01*
X89486904Y-63396009D02*
X89534523Y-63491247D01*
X89534523Y-63491247D02*
X89534523Y-63729342D01*
X89534523Y-63729342D02*
X89486904Y-63824580D01*
X89486904Y-63824580D02*
X89439285Y-63872200D01*
X89439285Y-63872200D02*
X89344047Y-63919819D01*
X89344047Y-63919819D02*
X89058333Y-63919819D01*
X89058333Y-63919819D02*
X88963095Y-63872200D01*
X88963095Y-63872200D02*
X88915476Y-63824580D01*
X70238095Y-62824819D02*
X70238095Y-63634342D01*
X70238095Y-63634342D02*
X70285714Y-63729580D01*
X70285714Y-63729580D02*
X70333333Y-63777200D01*
X70333333Y-63777200D02*
X70428571Y-63824819D01*
X70428571Y-63824819D02*
X70619047Y-63824819D01*
X70619047Y-63824819D02*
X70714285Y-63777200D01*
X70714285Y-63777200D02*
X70761904Y-63729580D01*
X70761904Y-63729580D02*
X70809523Y-63634342D01*
X70809523Y-63634342D02*
X70809523Y-62824819D01*
X71238095Y-62920057D02*
X71285714Y-62872438D01*
X71285714Y-62872438D02*
X71380952Y-62824819D01*
X71380952Y-62824819D02*
X71619047Y-62824819D01*
X71619047Y-62824819D02*
X71714285Y-62872438D01*
X71714285Y-62872438D02*
X71761904Y-62920057D01*
X71761904Y-62920057D02*
X71809523Y-63015295D01*
X71809523Y-63015295D02*
X71809523Y-63110533D01*
X71809523Y-63110533D02*
X71761904Y-63253390D01*
X71761904Y-63253390D02*
X71190476Y-63824819D01*
X71190476Y-63824819D02*
X71809523Y-63824819D01*
X94444819Y-46055238D02*
X94444819Y-46626666D01*
X94444819Y-46340952D02*
X93444819Y-46340952D01*
X93444819Y-46340952D02*
X93587676Y-46436190D01*
X93587676Y-46436190D02*
X93682914Y-46531428D01*
X93682914Y-46531428D02*
X93730533Y-46626666D01*
X93444819Y-45436190D02*
X93444819Y-45340952D01*
X93444819Y-45340952D02*
X93492438Y-45245714D01*
X93492438Y-45245714D02*
X93540057Y-45198095D01*
X93540057Y-45198095D02*
X93635295Y-45150476D01*
X93635295Y-45150476D02*
X93825771Y-45102857D01*
X93825771Y-45102857D02*
X94063866Y-45102857D01*
X94063866Y-45102857D02*
X94254342Y-45150476D01*
X94254342Y-45150476D02*
X94349580Y-45198095D01*
X94349580Y-45198095D02*
X94397200Y-45245714D01*
X94397200Y-45245714D02*
X94444819Y-45340952D01*
X94444819Y-45340952D02*
X94444819Y-45436190D01*
X94444819Y-45436190D02*
X94397200Y-45531428D01*
X94397200Y-45531428D02*
X94349580Y-45579047D01*
X94349580Y-45579047D02*
X94254342Y-45626666D01*
X94254342Y-45626666D02*
X94063866Y-45674285D01*
X94063866Y-45674285D02*
X93825771Y-45674285D01*
X93825771Y-45674285D02*
X93635295Y-45626666D01*
X93635295Y-45626666D02*
X93540057Y-45579047D01*
X93540057Y-45579047D02*
X93492438Y-45531428D01*
X93492438Y-45531428D02*
X93444819Y-45436190D01*
X94444819Y-44674285D02*
X93444819Y-44674285D01*
X94063866Y-44579047D02*
X94444819Y-44293333D01*
X93778152Y-44293333D02*
X94159104Y-44674285D01*
X95666666Y-76394819D02*
X95666666Y-77109104D01*
X95666666Y-77109104D02*
X95619047Y-77251961D01*
X95619047Y-77251961D02*
X95523809Y-77347200D01*
X95523809Y-77347200D02*
X95380952Y-77394819D01*
X95380952Y-77394819D02*
X95285714Y-77394819D01*
X96095238Y-76490057D02*
X96142857Y-76442438D01*
X96142857Y-76442438D02*
X96238095Y-76394819D01*
X96238095Y-76394819D02*
X96476190Y-76394819D01*
X96476190Y-76394819D02*
X96571428Y-76442438D01*
X96571428Y-76442438D02*
X96619047Y-76490057D01*
X96619047Y-76490057D02*
X96666666Y-76585295D01*
X96666666Y-76585295D02*
X96666666Y-76680533D01*
X96666666Y-76680533D02*
X96619047Y-76823390D01*
X96619047Y-76823390D02*
X96047619Y-77394819D01*
X96047619Y-77394819D02*
X96666666Y-77394819D01*
X91988095Y-49509819D02*
X91988095Y-48509819D01*
X91988095Y-48509819D02*
X92369047Y-48509819D01*
X92369047Y-48509819D02*
X92464285Y-48557438D01*
X92464285Y-48557438D02*
X92511904Y-48605057D01*
X92511904Y-48605057D02*
X92559523Y-48700295D01*
X92559523Y-48700295D02*
X92559523Y-48843152D01*
X92559523Y-48843152D02*
X92511904Y-48938390D01*
X92511904Y-48938390D02*
X92464285Y-48986009D01*
X92464285Y-48986009D02*
X92369047Y-49033628D01*
X92369047Y-49033628D02*
X91988095Y-49033628D01*
X77916666Y-76394819D02*
X77916666Y-77109104D01*
X77916666Y-77109104D02*
X77869047Y-77251961D01*
X77869047Y-77251961D02*
X77773809Y-77347200D01*
X77773809Y-77347200D02*
X77630952Y-77394819D01*
X77630952Y-77394819D02*
X77535714Y-77394819D01*
X78916666Y-77394819D02*
X78345238Y-77394819D01*
X78630952Y-77394819D02*
X78630952Y-76394819D01*
X78630952Y-76394819D02*
X78535714Y-76537676D01*
X78535714Y-76537676D02*
X78440476Y-76632914D01*
X78440476Y-76632914D02*
X78345238Y-76680533D01*
X90511904Y-43204819D02*
X90511904Y-42204819D01*
X90511904Y-42681009D02*
X91083332Y-42681009D01*
X91083332Y-43204819D02*
X91083332Y-42204819D01*
X91988094Y-43204819D02*
X91988094Y-42681009D01*
X91988094Y-42681009D02*
X91940475Y-42585771D01*
X91940475Y-42585771D02*
X91845237Y-42538152D01*
X91845237Y-42538152D02*
X91654761Y-42538152D01*
X91654761Y-42538152D02*
X91559523Y-42585771D01*
X91988094Y-43157200D02*
X91892856Y-43204819D01*
X91892856Y-43204819D02*
X91654761Y-43204819D01*
X91654761Y-43204819D02*
X91559523Y-43157200D01*
X91559523Y-43157200D02*
X91511904Y-43061961D01*
X91511904Y-43061961D02*
X91511904Y-42966723D01*
X91511904Y-42966723D02*
X91559523Y-42871485D01*
X91559523Y-42871485D02*
X91654761Y-42823866D01*
X91654761Y-42823866D02*
X91892856Y-42823866D01*
X91892856Y-42823866D02*
X91988094Y-42776247D01*
X92607142Y-43204819D02*
X92511904Y-43157200D01*
X92511904Y-43157200D02*
X92464285Y-43061961D01*
X92464285Y-43061961D02*
X92464285Y-42204819D01*
X93130952Y-43204819D02*
X93035714Y-43157200D01*
X93035714Y-43157200D02*
X92988095Y-43061961D01*
X92988095Y-43061961D02*
X92988095Y-42204819D01*
X93464286Y-42300057D02*
X93511905Y-42252438D01*
X93511905Y-42252438D02*
X93607143Y-42204819D01*
X93607143Y-42204819D02*
X93845238Y-42204819D01*
X93845238Y-42204819D02*
X93940476Y-42252438D01*
X93940476Y-42252438D02*
X93988095Y-42300057D01*
X93988095Y-42300057D02*
X94035714Y-42395295D01*
X94035714Y-42395295D02*
X94035714Y-42490533D01*
X94035714Y-42490533D02*
X93988095Y-42633390D01*
X93988095Y-42633390D02*
X93416667Y-43204819D01*
X93416667Y-43204819D02*
X94035714Y-43204819D01*
X86011904Y-43204819D02*
X86011904Y-42204819D01*
X86011904Y-42681009D02*
X86583332Y-42681009D01*
X86583332Y-43204819D02*
X86583332Y-42204819D01*
X87488094Y-43204819D02*
X87488094Y-42681009D01*
X87488094Y-42681009D02*
X87440475Y-42585771D01*
X87440475Y-42585771D02*
X87345237Y-42538152D01*
X87345237Y-42538152D02*
X87154761Y-42538152D01*
X87154761Y-42538152D02*
X87059523Y-42585771D01*
X87488094Y-43157200D02*
X87392856Y-43204819D01*
X87392856Y-43204819D02*
X87154761Y-43204819D01*
X87154761Y-43204819D02*
X87059523Y-43157200D01*
X87059523Y-43157200D02*
X87011904Y-43061961D01*
X87011904Y-43061961D02*
X87011904Y-42966723D01*
X87011904Y-42966723D02*
X87059523Y-42871485D01*
X87059523Y-42871485D02*
X87154761Y-42823866D01*
X87154761Y-42823866D02*
X87392856Y-42823866D01*
X87392856Y-42823866D02*
X87488094Y-42776247D01*
X88107142Y-43204819D02*
X88011904Y-43157200D01*
X88011904Y-43157200D02*
X87964285Y-43061961D01*
X87964285Y-43061961D02*
X87964285Y-42204819D01*
X88630952Y-43204819D02*
X88535714Y-43157200D01*
X88535714Y-43157200D02*
X88488095Y-43061961D01*
X88488095Y-43061961D02*
X88488095Y-42204819D01*
X89535714Y-43204819D02*
X88964286Y-43204819D01*
X89250000Y-43204819D02*
X89250000Y-42204819D01*
X89250000Y-42204819D02*
X89154762Y-42347676D01*
X89154762Y-42347676D02*
X89059524Y-42442914D01*
X89059524Y-42442914D02*
X88964286Y-42490533D01*
D13*
%TO.C,10k*%
X87015000Y-45272936D02*
X87015000Y-45727064D01*
X88485000Y-45272936D02*
X88485000Y-45727064D01*
%TO.C,C1*%
X86120000Y-50055000D02*
X87500000Y-50055000D01*
X86120000Y-51435000D02*
X86120000Y-50055000D01*
X86120000Y-52705000D02*
X86120000Y-55355000D01*
X86120000Y-52705000D02*
X88880000Y-52705000D01*
X86120000Y-55355000D02*
X88880000Y-55355000D01*
X88880000Y-52705000D02*
X88880000Y-55355000D01*
%TO.C,U3*%
X86665000Y-64305000D02*
X90785000Y-64305000D01*
X86665000Y-64360000D02*
X86665000Y-64305000D01*
X86665000Y-74425000D02*
X86665000Y-74370000D01*
X90785000Y-64305000D02*
X90785000Y-64360000D01*
X90785000Y-74370000D02*
X90785000Y-74425000D01*
X90785000Y-74425000D02*
X86665000Y-74425000D01*
X86125000Y-64355000D02*
X85885000Y-64025000D01*
X86365000Y-64025000D01*
X86125000Y-64355000D01*
G36*
X86125000Y-64355000D02*
G01*
X85885000Y-64025000D01*
X86365000Y-64025000D01*
X86125000Y-64355000D01*
G37*
%TO.C,U2*%
X68940000Y-64210000D02*
X73060000Y-64210000D01*
X68940000Y-64265000D02*
X68940000Y-64210000D01*
X68940000Y-74330000D02*
X68940000Y-74275000D01*
X73060000Y-64210000D02*
X73060000Y-64265000D01*
X73060000Y-74275000D02*
X73060000Y-74330000D01*
X73060000Y-74330000D02*
X68940000Y-74330000D01*
X68400000Y-64260000D02*
X68160000Y-63930000D01*
X68640000Y-63930000D01*
X68400000Y-64260000D01*
G36*
X68400000Y-64260000D02*
G01*
X68160000Y-63930000D01*
X68640000Y-63930000D01*
X68400000Y-64260000D01*
G37*
%TO.C,10k*%
X91605000Y-45232936D02*
X91605000Y-45687064D01*
X93075000Y-45232936D02*
X93075000Y-45687064D01*
%TO.C,J2*%
X94620000Y-73290000D02*
X94620000Y-63020000D01*
X97380000Y-63020000D02*
X94620000Y-63020000D01*
X97380000Y-73290000D02*
X94620000Y-73290000D01*
X97380000Y-73290000D02*
X97380000Y-63020000D01*
X97380000Y-74560000D02*
X97380000Y-75940000D01*
X97380000Y-75940000D02*
X96000000Y-75940000D01*
%TO.C,P*%
X90870000Y-50055000D02*
X92250000Y-50055000D01*
X90870000Y-51435000D02*
X90870000Y-50055000D01*
X90870000Y-52705000D02*
X90870000Y-55355000D01*
X90870000Y-52705000D02*
X93630000Y-52705000D01*
X90870000Y-55355000D02*
X93630000Y-55355000D01*
X93630000Y-52705000D02*
X93630000Y-55355000D01*
%TO.C,J1*%
X76870000Y-73290000D02*
X76870000Y-63020000D01*
X79630000Y-63020000D02*
X76870000Y-63020000D01*
X79630000Y-73290000D02*
X76870000Y-73290000D01*
X79630000Y-73290000D02*
X79630000Y-63020000D01*
X79630000Y-74560000D02*
X79630000Y-75940000D01*
X79630000Y-75940000D02*
X78250000Y-75940000D01*
D14*
%TO.C,U1*%
X66360000Y-33772500D02*
X84140000Y-33772500D01*
X66360000Y-54727500D02*
X66360000Y-33772500D01*
X84140000Y-33772500D02*
X84140000Y-54727500D01*
X84140000Y-54727500D02*
X66360000Y-54727500D01*
D15*
X65850000Y-36566500D02*
G75*
G02*
X65650000Y-36566500I-100000J0D01*
G01*
X65650000Y-36566500D02*
G75*
G02*
X65850000Y-36566500I100000J0D01*
G01*
D13*
%TO.C,Hall2*%
X90870000Y-34120000D02*
X92250000Y-34120000D01*
X90870000Y-35500000D02*
X90870000Y-34120000D01*
X90870000Y-36770000D02*
X90870000Y-41960000D01*
X90870000Y-36770000D02*
X93630000Y-36770000D01*
X90870000Y-41960000D02*
X93630000Y-41960000D01*
X93630000Y-36770000D02*
X93630000Y-41960000D01*
%TO.C,Hall1*%
X86370000Y-34080000D02*
X87750000Y-34080000D01*
X86370000Y-35460000D02*
X86370000Y-34080000D01*
X86370000Y-36730000D02*
X86370000Y-41920000D01*
X86370000Y-36730000D02*
X89130000Y-36730000D01*
X86370000Y-41920000D02*
X89130000Y-41920000D01*
X89130000Y-36730000D02*
X89130000Y-41920000D01*
%TD*%
M02*
