%TF.GenerationSoftware,KiCad,Pcbnew,9.0.7*%
%TF.CreationDate,2026-04-08T17:29:30+02:00*%
%TF.ProjectId,HotClock,486f7443-6c6f-4636-9b2e-6b696361645f,rev?*%
%TF.SameCoordinates,Original*%
%TF.FileFunction,Copper,L2,Bot*%
%TF.FilePolarity,Positive*%
%FSLAX46Y46*%
G04 Gerber Fmt 4.6, Leading zero omitted, Abs format (unit mm)*
G04 Created by KiCad (PCBNEW 9.0.7) date 2026-04-08 17:29:30*
%MOMM*%
%LPD*%
G01*
G04 APERTURE LIST*
%TA.AperFunction,ComponentPad*%
%ADD10R,1.700000X1.700000*%
%TD*%
%TA.AperFunction,ComponentPad*%
%ADD11C,1.700000*%
%TD*%
%TA.AperFunction,ComponentPad*%
%ADD12C,5.600000*%
%TD*%
%TA.AperFunction,ComponentPad*%
%ADD13R,1.358000X1.358000*%
%TD*%
%TA.AperFunction,ComponentPad*%
%ADD14C,1.358000*%
%TD*%
%TA.AperFunction,ViaPad*%
%ADD15C,0.600000*%
%TD*%
%TA.AperFunction,Conductor*%
%ADD16C,0.200000*%
%TD*%
%TA.AperFunction,Conductor*%
%ADD17C,0.800000*%
%TD*%
G04 APERTURE END LIST*
D10*
%TO.P,C1,1*%
%TO.N,/GND*%
X87500000Y-51435000D03*
D11*
%TO.P,C1,2*%
%TO.N,5V*%
X87500000Y-53975000D03*
%TD*%
D12*
%TO.P,H1,1,1*%
%TO.N,/GND*%
X70000000Y-59250000D03*
%TD*%
%TO.P,H2,1,1*%
%TO.N,/GND*%
X96000000Y-58250000D03*
%TD*%
D10*
%TO.P,J2,1,Pin_1*%
%TO.N,5V*%
X96000000Y-74560000D03*
D11*
%TO.P,J2,2,Pin_2*%
%TO.N,Net-(J2-Pin_2)*%
X96000000Y-72020000D03*
%TO.P,J2,3,Pin_3*%
%TO.N,Net-(J2-Pin_3)*%
X96000000Y-69480000D03*
%TO.P,J2,4,Pin_4*%
%TO.N,Net-(J2-Pin_4)*%
X96000000Y-66940000D03*
%TO.P,J2,5,Pin_5*%
%TO.N,Net-(J2-Pin_5)*%
X96000000Y-64400000D03*
%TD*%
D10*
%TO.P,P,1,Pin_1*%
%TO.N,/GND*%
X92250000Y-51435000D03*
D11*
%TO.P,P,2,Pin_2*%
%TO.N,5V*%
X92250000Y-53975000D03*
%TD*%
D10*
%TO.P,J1,1,Pin_1*%
%TO.N,5V*%
X78250000Y-74560000D03*
D11*
%TO.P,J1,2,Pin_2*%
%TO.N,Net-(J1-Pin_2)*%
X78250000Y-72020000D03*
%TO.P,J1,3,Pin_3*%
%TO.N,Net-(J1-Pin_3)*%
X78250000Y-69480000D03*
%TO.P,J1,4,Pin_4*%
%TO.N,Net-(J1-Pin_4)*%
X78250000Y-66940000D03*
%TO.P,J1,5,Pin_5*%
%TO.N,Net-(J1-Pin_5)*%
X78250000Y-64400000D03*
%TD*%
D13*
%TO.P,U1,1,D0*%
%TO.N,/P1*%
X67630000Y-36693500D03*
D14*
%TO.P,U1,2,D1*%
%TO.N,/P2*%
X67630000Y-39233500D03*
%TO.P,U1,3,D2*%
%TO.N,/P3*%
X67630000Y-41773500D03*
%TO.P,U1,4,D3*%
%TO.N,/P4*%
X67630000Y-44313500D03*
%TO.P,U1,5,D4*%
%TO.N,/P5*%
X67630000Y-46853500D03*
%TO.P,U1,6,D5*%
%TO.N,/P6*%
X67630000Y-49393500D03*
%TO.P,U1,7,TX_D6*%
%TO.N,/P7*%
X67630000Y-51933500D03*
%TO.P,U1,8,RX_D7*%
%TO.N,/P8*%
X82870000Y-51933500D03*
%TO.P,U1,9,D8*%
%TO.N,/P9*%
X82870000Y-49393500D03*
%TO.P,U1,10,D9*%
%TO.N,/P10*%
X82870000Y-46853500D03*
%TO.P,U1,11,D10*%
%TO.N,/P11*%
X82870000Y-44313500D03*
%TO.P,U1,12,VCC_3V3*%
%TO.N,/3v3*%
X82870000Y-41773500D03*
%TO.P,U1,13,GND*%
%TO.N,/GND*%
X82870000Y-39233500D03*
%TO.P,U1,14,VUSB*%
%TO.N,5V*%
X82870000Y-36693500D03*
%TD*%
D10*
%TO.P,Hall2,1,Pin_1*%
%TO.N,5V*%
X92250000Y-35500000D03*
D11*
%TO.P,Hall2,2,Pin_2*%
%TO.N,/GND*%
X92250000Y-38040000D03*
%TO.P,Hall2,3,Pin_3*%
%TO.N,/P9*%
X92250000Y-40580000D03*
%TD*%
D10*
%TO.P,Hall1,1,Pin_1*%
%TO.N,5V*%
X87750000Y-35460000D03*
D11*
%TO.P,Hall1,2,Pin_2*%
%TO.N,/GND*%
X87750000Y-38000000D03*
%TO.P,Hall1,3,Pin_3*%
%TO.N,/P10*%
X87750000Y-40540000D03*
%TD*%
D15*
%TO.N,/GND*%
X81000000Y-76250000D03*
X81000000Y-73250000D03*
%TO.N,/P4*%
X68525000Y-68635000D03*
%TO.N,/P2*%
X68525000Y-66095000D03*
X72500000Y-61750000D03*
X73750000Y-61750000D03*
%TO.N,/P3*%
X68525000Y-67365000D03*
%TD*%
D16*
%TO.N,/GND*%
X81000000Y-73250000D02*
X81000000Y-76250000D01*
X92250000Y-37960000D02*
X87790000Y-37960000D01*
X96000000Y-53250000D02*
X96000000Y-58250000D01*
X92250000Y-51435000D02*
X94185000Y-51435000D01*
X87790000Y-37960000D02*
X87750000Y-38000000D01*
X94185000Y-51435000D02*
X96000000Y-53250000D01*
%TO.N,/P4*%
X66650000Y-66760000D02*
X66650000Y-45293500D01*
X66650000Y-45293500D02*
X67630000Y-44313500D01*
X68525000Y-68635000D02*
X66650000Y-66760000D01*
%TO.N,/P2*%
X73750000Y-45353500D02*
X73750000Y-61750000D01*
X67630000Y-39233500D02*
X73750000Y-45353500D01*
X68525000Y-66095000D02*
X72500000Y-62120000D01*
X72500000Y-62120000D02*
X72500000Y-61750000D01*
%TO.N,/P3*%
X73101000Y-47244500D02*
X67630000Y-41773500D01*
X73101000Y-62789000D02*
X73101000Y-47244500D01*
X68525000Y-67365000D02*
X73101000Y-62789000D01*
D17*
%TO.N,5V*%
X92250000Y-35500000D02*
X87790000Y-35500000D01*
X82870000Y-36693500D02*
X86516500Y-36693500D01*
X86516500Y-36693500D02*
X87750000Y-35460000D01*
X87790000Y-35500000D02*
X87750000Y-35460000D01*
%TD*%
M02*
